<?xml version="1.0" encoding="utf-8"?>
<!-- Generator: Adobe Illustrator 16.0.4, SVG Export Plug-In . SVG Version: 6.00 Build 0)  -->
<!DOCTYPE svg PUBLIC "-//W3C//DTD SVG 1.1//EN" "http://www.w3.org/Graphics/SVG/1.1/DTD/svg11.dtd">
<svg version="1.1" id="Layer_1" xmlns="http://www.w3.org/2000/svg" xmlns:xlink="http://www.w3.org/1999/xlink" x="0px" y="0px"
	 width="100px" height="183px" viewBox="0 0 100 183" enable-background="new 0 0 100 183" xml:space="preserve">
<path fill-rule="evenodd" clip-rule="evenodd" fill="#FFFFFF" d="M21.886,104.578c-1.145-0.937-2.289-1.665-3.536-2.132
	c-1.197-0.467-2.497-0.729-3.901-0.729c-2.6,0-4.731,0.885-6.396,2.549c-1.665,1.717-2.497,3.899-2.497,6.604
	c0,2.601,0.832,4.734,2.445,6.398c1.611,1.714,3.64,2.546,6.083,2.546c1.404,0,2.756-0.259,4.057-0.726
	c1.3-0.521,2.497-1.302,3.693-2.289v4.42c-1.041,0.729-2.184,1.299-3.433,1.665c-1.249,0.362-2.601,0.57-4.004,0.57
	c-1.872,0-3.536-0.312-5.097-0.882c-1.611-0.625-2.963-1.509-4.16-2.706c-1.144-1.144-2.081-2.495-2.704-4.056
	S1.5,112.587,1.5,110.818s0.312-3.433,0.936-4.991c0.624-1.561,1.561-2.914,2.756-4.109c1.196-1.143,2.548-2.027,4.108-2.651
	c1.561-0.625,3.226-0.937,4.994-0.937c1.404,0,2.808,0.208,4.056,0.625c1.3,0.415,2.548,1.04,3.744,1.872L21.886,104.578z
	 M21.886,104.578L21.886,104.578L21.886,104.578z M26.721,122.833v-24.13h3.953v20.593h8.737v3.537H26.721z M26.721,122.833
	L26.721,122.833L26.721,122.833z M42.583,122.833v-24.13H56v3.329h-9.517v6.03H56v3.484h-9.517v7.749H56v3.537H42.583z
	 M42.583,122.833L42.583,122.833L42.583,122.833z M65.62,113.367h6.709l-2.496-5.513c-0.157-0.362-0.26-0.78-0.416-1.194
	c-0.156-0.47-0.312-0.988-0.468-1.562c-0.156,0.573-0.26,1.04-0.417,1.509c-0.155,0.415-0.312,0.83-0.468,1.247L65.62,113.367z
	 M65.62,113.367L65.62,113.367L65.62,113.367z M76.438,122.833l-2.756-6.189h-9.518l-2.808,6.189h-4.108l11.648-25.066
	l11.649,25.066H76.438z M76.438,122.833L76.438,122.833L76.438,122.833z M86.734,108.998h0.728c2.08,0,3.433-0.259,4.108-0.726
	c0.676-0.47,1.04-1.354,1.04-2.601c0-1.302-0.364-2.237-1.093-2.759c-0.728-0.57-2.079-0.829-4.056-0.829h-0.728V108.998z
	 M86.734,108.998L86.734,108.998L86.734,108.998z M86.525,112.016v10.817h-3.691v-24.13h5.46c1.612,0,2.86,0.104,3.745,0.311
	c0.884,0.208,1.611,0.573,2.236,1.04c0.727,0.625,1.352,1.354,1.716,2.289c0.415,0.884,0.624,1.924,0.624,3.016
	c0,1.924-0.469,3.433-1.404,4.524c-0.936,1.091-2.288,1.768-4.108,1.976l8.269,10.975H94.95l-8.009-10.817H86.525z"/>
<path fill-rule="evenodd" clip-rule="evenodd" fill="#FFFFFF" d="M1.5,129.177h14.405v25.532c0,3.692,0.104,6.398,0.26,8.063
	c0.208,1.609,0.52,3.015,0.988,4.106c0.572,1.299,1.508,2.341,2.912,3.067c1.354,0.677,3.068,1.042,5.045,1.042
	c1.976,0,3.64-0.365,4.992-1.042c1.404-0.727,2.34-1.769,2.913-3.067c0.468-1.092,0.831-2.497,0.988-4.106
	c0.208-1.665,0.312-4.371,0.312-8.063v-3.588v-21.944H48.72v27.718c0,5.771-0.364,9.984-1.093,12.74
	c-0.675,2.756-1.872,5.098-3.536,7.021c-1.769,2.131-4.264,3.691-7.436,4.783C33.483,182.479,29.634,183,25.11,183
	c-4.524,0-8.373-0.521-11.545-1.561c-3.12-1.092-5.617-2.652-7.437-4.783c-1.663-1.924-2.86-4.266-3.536-7.021
	c-0.728-2.756-1.092-6.969-1.092-12.74v-5.408V129.177z M1.5,129.177L1.5,129.177L1.5,129.177z M73.266,181.649H59.64v-52.473
	h15.186c5.929,0,10.037,0.26,12.48,0.832c2.34,0.57,4.369,1.561,6.032,2.964c1.977,1.561,3.484,3.588,4.525,5.98
	c0.987,2.391,1.508,5.098,1.508,8.009c0,3.171-0.521,5.875-1.508,8.269c-1.041,2.393-2.549,4.316-4.525,5.825
	c-1.456,1.195-3.223,1.976-5.252,2.494c-2.028,0.521-5.304,0.78-9.776,0.78h-2.445h-2.599V181.649z M73.266,181.649L73.266,181.649
	L73.266,181.649z M73.266,152.785h2.756c3.484,0,5.876-0.467,7.28-1.402c1.352-0.937,2.08-2.549,2.08-4.838
	c0-2.183-0.729-3.744-2.08-4.68c-1.301-0.936-3.744-1.405-7.125-1.405h-2.911V152.785z"/>
<path fill-rule="evenodd" clip-rule="evenodd" fill="#FFFFFF" d="M38.111,88.926c-1.145,0.155-3.224,0-4.42,0.052
	c-1.456,0.052-2.964-0.052-4.421,0.052c-1.456,0.104-3.068-0.052-4.524-0.052c-0.729,0.052-1.508,0-2.288,0
	c-1.145,0-3.381,0.104-4.42-0.052l-6.657-0.104c-1.924-0.106-5.928-0.158-7.905-0.521c-0.208-0.052-0.311-0.104-0.468-0.156
	c-0.052-0.259-0.104-2.289,0-2.6c0.884-0.052,3.64,0,4.681,0.052c1.611,0,3.276,0,4.889,0c1.611,0,3.172,0.052,4.785,0.052
	c0.884,0.052,1.56,0.104,2.34,0.104l12.065,0.104c1.611,0,3.276,0,4.888,0.052c1.611,0.052,1.768-0.311,1.663,0.78
	c-0.052,0.677-0.052,0.208-0.052,1.146C38.266,88.301,38.266,88.561,38.111,88.926z M38.111,88.926L38.111,88.926L38.111,88.926z
	 M17.517,67.293l0.052,4.524c-0.208,2.235-0.936,3.899-0.936,6.24c0,0.363-0.104,0.623-0.104,0.988l-0.052,2.963l-0.157,0.156
	c-0.727,0.104-2.027,0-2.808,0c-0.52,0-0.936,0.052-1.404,0.052c-1.196,0-8.061-0.155-8.528,0c-0.157,0.052-1.041,0.988-1.196,1.25
	l-0.312,0.467c-0.468,0.625-0.52,1.092-0.572,1.82c0,0.208,0.052,0.313,0.052,0.521l0.052,2.391c0,0.209,0,0.938,0.052,1.094
	c1.3,0,2.652,0.052,3.952,0l18.046,0.208c3.432,0.052,6.916,0,10.401,0.052c0.571,0.052,5.147,0.104,5.304,0
	c0.104-0.311-0.052-1.872-0.052-2.235c0-0.78-0.105-1.561-0.105-2.393c0-0.521-0.156-1.82-0.363-2.134
	c-0.209-0.259-1.561-0.519-2.341-1.506c0,0,0,0-0.052,0l-0.468-0.729c-0.416-0.676-0.936-0.573-1.716-0.729
	c-0.727-0.104-3.795-0.104-4.731,0c-0.208,0.259-0.261,0.259-0.468,0.521c-0.417,0.415-0.833,1.144-1.352,1.403
	c-0.625,0.366-2.549,0.052-3.121-0.311c0-0.156,0-1.144,0.052-1.354c0.052-0.415,0-0.884,0.052-1.351c0-0.417,0-0.936,0-1.405
	l-0.104-1.299c-0.105-0.366-0.157-0.78-0.26-1.144c-0.833-3.018-0.52-6.033-0.468-9.154c0-0.936-0.052-1.924,0-2.86
	c0-0.415-0.052-0.832-0.052-1.299c0.052-2.082,0.052-4.161,0-6.241c0-1.25,0.156-5.356,0.052-6.137c-0.104-0.884-0.052-1.82,0-2.756
	l0.104-14.562c0-1.61,0.104-3.275,0.104-4.939c0-0.573,0.105-0.936,0.105-1.509l0.104-3.274c0.104-0.469,0-1.042,0.104-1.509
	c0-0.26,0-0.573,0-0.833l0.208-3.067c0.156-1.198,0.156-2.445,0.572-3.537c0.208-0.677,0.416-1.198,0.729-1.768
	c0.156-0.21,0.208-0.313,0.363-0.521l1.041-1.247c0.676-0.781,1.508-1.354,2.392-1.82c0.312-0.21,0.573-0.365,0.884-0.469
	C30.674,7.8,30.674,7.8,30.831,7.748c0.155-0.104,0.364-0.208,0.52-0.311l0.988-0.262c0.104-0.104,0.155-0.052,0.312-0.104
	c0.208-0.052,0.364-0.155,0.572-0.208c1.508-0.417,2.913-0.521,4.42-0.521c2.081,0,3.901,0.366,5.46,1.094
	c0.78,0.363,1.507,0.936,2.08,1.506l0.26,0.365c0.364,0.467,0.625,1.04,0.78,1.662c0.26,1.094,0.155,1.665-0.156,2.758
	c-0.312,1.04-0.884,1.82-1.612,2.601l-0.104,0.104c-0.052,0.104,0,0.052-0.052,0.156c-0.052,0-0.052,0.052-0.104,0.104l-0.104,0.052
	c-0.156,0.155-0.208,0.259-0.417,0.415c-0.052,0.055-0.052,0.055-0.104,0.158c-0.104,0.052,0-0.052-0.104,0.104l-2.236,2.235
	c-0.833,0.832-1.561,1.768-2.288,2.704l-2.236,3.536c-0.208,0.313-0.364,0.677-0.52,1.04c-0.416,0.729-1.249,2.497-1.509,3.329
	c0,0.052-0.052,0.156-0.052,0.311l-1.3,4.006c-0.104,0.259-0.104,0.519-0.156,0.729c-0.416,1.299-0.52,2.704-0.78,4.106
	c-0.156,0.988-0.156,2.03-0.259,3.018l-0.105,1.455c-0.156,0.729,0,1.612-0.052,2.393c0,0.26,0.052,0.521,0.052,0.78
	c0.052,0.312-0.052,0.573,0,0.833s0.052,0.467,0.052,0.729c0,0.623,0.105,1.506,0.157,2.079l0.208,1.561
	c0,0.519,0.208,0.936,0.26,1.455c0.208,1.25,0.52,2.445,0.884,3.64c0.259,0.884,0.468,1.716,0.779,2.6
	c0.833,2.082,1.821,4.109,3.122,5.877c1.299,1.768,2.808,3.277,4.731,4.369c0.729,0.415,2.497,1.299,3.277,1.247
	c-0.053-0.467-0.676-1.04-1.041-1.351c-0.417-0.417-0.988-0.729-1.56-1.094l-0.52-0.259c-0.157-0.104-0.208-0.156-0.364-0.259
	c-0.573-0.311-1.196-0.729-1.716-1.144c-0.416-0.313-1.04-0.832-1.352-1.301l-0.104-0.104v-0.052
	c-0.677-0.625-1.145-1.612-1.561-2.393l-0.416-0.78c-0.104-0.312-0.208-0.467-0.312-0.778c-0.052-0.21-0.259-0.573-0.363-0.832
	c-0.52-1.405-1.093-2.966-1.352-4.42c-0.157-0.625-0.261-1.198-0.417-1.872c-0.104-0.365-0.104-0.625-0.208-0.99
	c-0.312-1.924-0.572-4.262-0.624-6.292c-0.052-3.223,0-6.863,0.52-9.829c0.104-0.57,0.208-1.195,0.312-1.766
	c0.208-1.094,0.833-3.85,1.249-4.838l0.572-1.457c0.208-0.519,0.416-0.936,0.624-1.455c0.364-0.884,0.936-1.82,1.404-2.6
	c0.52-0.833,1.145-1.716,1.716-2.393c0.104-0.104,0.157-0.208,0.209-0.311l1.143-1.354c0.052-0.052,0.052-0.104,0.104-0.155
	l0.364-0.415c2.132-2.704,2.34-2.186,3.172-2.966c0.677-0.623,1.145-1.559,1.665-2.391c0.26-0.469,0.416-0.884,0.572-1.405
	c0.208-0.415,0.416-1.143,0.468-1.612c0.209-1.662-0.155-3.327-1.404-4.473c-0.156-0.155-0.104-0.155-0.259-0.311
	c-0.625-0.573-1.352-0.936-2.132-1.353c-2.756-1.351-6.812-1.403-9.881-0.936c-0.988,0.158-1.768,0.365-2.652,0.625
	c-0.78,0.208-2.756,0.988-3.433,1.405c-0.728,0.519-1.04,0.729-1.664,1.299c-0.363,0.259-0.676,0.677-0.884,1.04
	c-0.208,0.313-0.415,0.625-0.624,0.988c-0.468,0.884-0.936,2.6-1.196,3.588c-0.156,0.469-0.208,0.884-0.312,1.302
	c-0.208,0.625-0.052,0.832-0.832,0.832h-3.068c0-0.417,0.156-1.405,0.208-1.82c0.26-1.769,0.832-3.692,1.665-5.253
	c0.104-0.208,0.208-0.311,0.364-0.625c0.468-1.04,1.768-2.391,2.652-3.171c0.52-0.469,1.144-0.884,1.769-1.25
	c0.675-0.467,1.923-0.988,2.704-1.248c0.675-0.207,1.143-0.365,1.924-0.521c0.052-0.052,0.26-0.104,0.364-0.155
	c0.988-0.259,4.16-0.677,5.201-0.677c0.363,0,1.195-0.052,1.56-0.104c0.625-0.052,2.756,0.104,3.433,0.208l1.768,0.262
	c1.508,0.415,2.443,0.781,3.744,1.403c1.456,0.729,2.913,2.134,3.744,3.381c0.261,0.417,0.521,0.884,0.677,1.353
	c0.261,0.571,0.364,1.04,0.468,1.559c0.521,1.978,0,4.109-0.727,5.929c-0.105,0.259-0.157,0.469-0.312,0.729
	c-0.729,1.613-2.548,3.951-3.9,5.252l-1.04,0.936c-0.417,0.312-0.677,0.623-1.093,0.988c-0.208,0.156-0.312,0.363-0.468,0.519
	c-0.364,0.365-0.624,0.729-0.936,1.094c-0.624,0.832-1.144,1.768-1.613,2.704c-0.052,0.052-0.104,0.156-0.104,0.156l-0.52,0.988
	c-0.468,0.988-0.78,1.924-1.144,2.963l-0.26,0.729c-0.052,0.259-0.208,0.573-0.261,0.729c-0.468,1.768-1.247,5.097-1.247,6.917
	c0,0.311,0,0.674,0,0.988c-0.105,0.832-0.105,1.924-0.105,2.808c-0.052,0.936,0.208,4.421,0.208,4.784
	c-0.052,0.625,0.312,3.744,0.468,4.42c0.104,0.573,0.312,1.976,0.468,2.497c0.261,0.833,0.312,1.561,0.624,2.341
	c0.105,0.208,0.209,0.519,0.261,0.726l0.312,0.729c0.052,0.104,0.052,0.259,0.104,0.365c0.468,1.04,0.936,1.976,1.613,2.912
	c0.468,0.729,1.715,2.027,2.547,2.445c0.208,0.104,1.196,0.415,1.509,0.415c0-0.311,0.052-0.156-0.105-0.415
	c-0.259-0.469-0.363-0.884-0.78-1.25l-0.468-0.363c-0.624-0.573-1.144-1.04-1.611-1.716l-0.677-0.988
	c-0.52-0.936-0.988-1.872-1.3-2.859c-0.363-1.094-0.676-2.186-0.883-3.329c-0.469-1.924-0.625-3.848-0.832-5.825l-0.052-5.147
	c0-0.884,0.104-1.664,0.155-2.497c0-0.677,0.208-1.457,0.208-2.133c0.052-0.519,0.209-1.559,0.312-2.028l0.416-1.924
	c0.261-1.247,1.04-4.213,1.665-5.304c0.104-0.208,0.104-0.259,0.156-0.415c0.26-0.677,0.624-1.301,0.936-1.926
	c0.416-0.726,0.936-1.403,1.404-2.079c0.208-0.259,0.364-0.415,0.521-0.625c0.519-0.622,1.144-1.144,1.715-1.716
	c0.884-0.882,1.769-1.455,2.704-2.494l0.261-0.313c0.104-0.104,0.104-0.156,0.156-0.208l1.3-1.82
	c0.572-0.936,1.041-2.079,1.353-3.277c0.208-0.674,0.26-1.247,0.364-1.976c0.155-0.78,0.104-1.247,0.104-2.08l-0.052-0.469
	C52.88,10.66,52.88,10.4,52.88,10.245c-0.208-1.872-1.249-4.057-2.601-5.46c-0.156-0.106-0.208-0.158-0.312-0.313l-1.769-1.403
	c0-0.052-0.156-0.104-0.156-0.158l-1.924-0.936c-0.832-0.363-1.664-0.622-2.6-0.832c-0.312-0.049-0.676-0.104-0.988-0.208
	c-0.988-0.208-2.185-0.259-3.172-0.311c-1.352-0.052-1.977,0.052-3.277,0.052l-1.144,0.104c-0.988,0.052-1.82,0.208-2.808,0.363
	c-0.833,0.158-3.849,0.886-4.629,1.301c-0.155,0.052-0.259,0.052-0.364,0.104c-0.988,0.363-1.924,0.884-2.756,1.457
	c-0.728,0.467-1.3,0.988-1.924,1.558l0,0c-0.572,0.521-0.936,0.99-1.352,1.561c-0.208,0.208-0.26,0.417-0.416,0.625
	c-0.468,0.625-0.832,1.299-1.145,2.027c-0.468,1.195-0.728,2.028-1.04,3.225c-0.155,0.571-0.155,1.144-0.312,1.769
	c-0.104,0.57-0.104,1.04-0.156,1.455c0,0.209-0.052,0.262-0.052,0.469c0,0.363-0.052,0.467-0.052,0.833l-0.052,1.768
	c0,0.259-0.052,0.156-0.104,0.363c-0.052,0.573,0.104,1.091-0.052,1.612c-0.052,0-0.052,0-0.052,0c0,0.521,0,0.988,0,1.509
	c0.104,0.519,0.104,0.988,0.052,1.455h0.052l0.053,2.134c0,0.415,0,0.832,0,1.195c0,0.417,0.052,0.884,0.052,1.144
	c-0.104,0.988,0,1.457,0,2.289c0,0.729,0,1.612,0,2.341c0,1.195,0,2.495-0.052,3.744l-0.157,19.968c0,0.884,0.052,6.448-0.104,7.073
	l0,0c0,0.104,0,0.259,0,0.417C17.569,65.473,17.569,66.357,17.517,67.293z M17.517,67.293L17.517,67.293L17.517,67.293z
	 M17.362,83.308c0.675,0,1.091,0.106,1.611,0.106l3.224,0.052c0.573,0,0.989-0.052,1.561-0.052c2.081,0,4.16-0.21,6.24-0.21
	c2.133,0,5.096-0.104,7.073,0.78c0.104,0.052,0.468,0.314,0.572,0.469l0.052,0.104c-0.26,0.104-0.78,0.104-1.04,0.104l-3.329-0.052
	c-1.404,0-2.964,0-4.42,0c-2.652,0-6.292-0.156-8.736-0.104l-4.265-0.052c-1.456-0.052-2.963,0-4.368-0.052
	c-1.509,0-2.913,0.052-4.42,0L5.66,84.454c-0.417-0.052-2.444,0.052-2.496-0.417c0.104-0.467,0.624-0.623,1.195-0.729
	c0.416-0.052,1.352-0.104,1.768-0.104c1.249,0,2.548,0,3.745,0.052c1.195,0.052,2.547,0.052,3.744,0.052
	C14.917,83.308,16.113,83.308,17.362,83.308z M17.362,83.308L17.362,83.308L17.362,83.308z M29.738,81.905
	c0.26-0.832,2.756-0.729,3.797-0.521l0.831,0.313c0.208,0.104,0.157,0.052,0.26,0.208c-0.311,0.311-1.768,0.521-2.392,0.521
	c-0.572,0-0.884-0.054-1.404-0.106c-0.261,0-0.364-0.052-0.625-0.156c-0.155,0-0.104,0-0.259-0.052
	C29.79,82.009,29.79,82.061,29.738,81.905z M29.738,81.905L29.738,81.905L29.738,81.905z M23.238,76.341
	c0.104,0.208,0.104,5.616,0,5.72c-0.157,0.311-2.132,0.155-2.548,0.155c-0.52,0.052-2.497,0.052-2.808-0.052
	c-0.052-0.936,0-2.027,0-2.963v-2.186c-0.104-1.04-0.312-1.092,1.144-0.988c0.208,0.052,0.416,0.104,0.625,0.104l2.236,0.054
	C22.197,76.238,23.029,76.238,23.238,76.341z M23.238,76.341L23.238,76.341L23.238,76.341z M23.029,19.76
	c0,1.04,0.052,2.445-0.052,3.433l-0.104,2.966c0.052,2.08-0.052,4.263-0.052,6.344l-0.052,6.292c-0.053,0.988,0,2.027-0.053,3.015
	c-0.052,1.195-0.052,4.42-0.104,5.929l-0.052,9.673c0,0.83,0,1.714,0,2.546c-0.052,0.936-0.104,1.613-0.104,2.445l-0.052,12.17
	c-0.104,0.57-0.988,0.311-1.925,0.311c-0.363,0-1.352,0-1.56-0.155c-0.104-0.104-0.052-2.601-0.052-3.016c0-0.99,0-2.082,0-3.069
	c0-0.415-0.052-0.677-0.052-0.988c0.052-3.64-0.052-7.229,0-10.869c0-1.143-0.052-2.289-0.052-3.433
	c0.052-1.143,0.052-2.289,0.052-3.433c0-0.573,0-1.143,0-1.716c0-0.57-0.052-1.091-0.052-1.716c0-3.433,0.104-7.021,0.104-10.451
	c0-3.277,0.208-6.917,0.208-10.246c0-0.833,0.052-3.277,0.209-4.161l0.052-1.559c0.052-0.155,0.104-0.313,0.104-0.521
	c0-0.259,0.104-1.976,0.364-1.768c0.833,0,1.769,0.052,2.601,0C23.342,17.784,22.978,17.681,23.029,19.76z"/>
<path fill-rule="evenodd" clip-rule="evenodd" fill="#FFFFFF" d="M44.975,89.289c-0.415-0.311-0.675-3.329-0.727-4.055l-0.052-2.704
	c0.104-0.573,0-1.25,0.052-1.82c0.104-0.99,0.416-4.058,1.404-4.369c0.572,0.833,0.832,1.976,0.675,3.015
	c-0.052,0.208-0.052,0.26-0.052,0.417c0,0.208-0.052,0.259-0.052,0.415l-0.208,1.716c0,0.259-0.105,0.573-0.105,0.832
	c-0.156,1.613-0.104,2.028-0.104,3.537C45.755,86.741,45.807,89.133,44.975,89.289z M44.975,89.289L44.975,89.289L44.975,89.289z
	 M92.401,76.131c0.312-0.104,0.834,0.21,1.041,0.314c1.092,0.78,0.833,2.6,0.78,3.588c-0.104,1.716-0.052,2.235-0.052,3.796
	c0,1.195,0.208,4.472-0.677,5.252c-0.468-0.052-0.52-0.469-0.623-1.091c-0.053-0.625-0.312-7.49-0.364-8.53
	C92.507,78.994,92.35,76.238,92.401,76.131z M92.401,76.131L92.401,76.131L92.401,76.131z M93.13,75.302
	c0-0.054,0.053-0.054,0.053,0C93.13,75.354,93.13,75.405,93.13,75.302z M93.13,75.302L93.13,75.302L93.13,75.302z M51.735,52.367
	c0-0.104,0.053-0.052,0.053,0C51.84,52.471,51.735,52.419,51.735,52.367z M51.735,52.367L51.735,52.367L51.735,52.367z
	 M63.072,43.111c0-0.521,1.249-1.822,1.717-2.237c0.78-0.677,1.56-1.091,2.547-1.405c0.468-0.156,1.769-0.415,2.289-0.363
	c0.831,0.052,1.456,0.208,2.185,0.415c0.986,0.365,1.715,0.78,2.495,1.509c0.104,0.156,0.209,0.208,0.312,0.365l0.156,0.156
	c0.052,0.104,0.104,0.104,0.155,0.156c0.209,0.155,0.988,1.247,0.988,1.664l-3.067-0.625c-2.185-0.415-4.317-0.521-6.604-0.052
	C65.725,42.798,63.488,43.163,63.072,43.111z M63.072,43.111L63.072,43.111L63.072,43.111z M55.584,46.49
	c0.364-0.104,2.288-0.78,2.652-0.988c0.832-0.625,1.039-0.519,2.028-1.612l0.779-0.778c0.832-0.886,1.248-1.561,1.872-2.445
	c0.208-0.262,1.509-1.197,1.925-1.457c0,0,0,0,0.052,0l0.571-0.363c1.353-0.78,2.965-1.198,4.889-1.04
	c0.832,0.104,1.508,0.259,2.288,0.622c0.625,0.262,1.404,0.677,1.82,1.04c0.572,0.469,1.093,0.884,1.509,1.457
	c0.312,0.312,0.416,0.521,0.676,0.781c0.416,0.519,1.3,2.287,1.716,2.6c0.261,0.208,1.56,0.884,1.924,1.04
	c1.352,0.676,2.028,1.353,3.068,2.027c0.157,0.155,0.261,0.262,0.468,0.313c0-0.313-1.144-1.924-1.403-2.289l-0.363-0.467
	c-0.105-0.106-0.209-0.262-0.261-0.366c-0.104-0.155-0.104-0.104-0.209-0.259c-0.311-0.521-2.235-2.6-2.704-2.963l-0.416-0.313
	c-0.675-0.729-2.704-2.027-3.536-2.497c-1.352-0.674-2.859-1.247-4.628-1.403c-0.936-0.156-1.976,0-2.859,0.052
	c-0.78,0.052-2.758,0.677-3.433,1.092l-0.937,0.521c-0.832,0.363-1.924,1.299-2.652,1.872c-0.416,0.312-1.977,1.924-2.288,2.287
	l-1.3,1.665c-0.261,0.313-0.416,0.573-0.623,0.884C55.948,45.815,55.636,46.075,55.584,46.49z M55.584,46.49L55.584,46.49
	L55.584,46.49z M63.488,71.296c-0.364,0-0.936-0.156-1.3-0.26c-0.155-0.052-0.364-0.104-0.573-0.155
	c-0.675-0.106-2.131-0.625-2.756-0.833c-0.364-0.155-0.779-0.262-1.144-0.417c-0.623-0.259-1.455-0.519-2.08-0.833
	c-0.312-0.155-0.78-0.259-1.04-0.415c-1.196-0.625-2.756-1.302-4.004-1.872l-0.988-0.469c-0.261-0.156-0.884-0.311-0.988-0.467
	c-0.053-0.21,0.415-3.381,0.52-3.902c0.104-0.415,0.156-0.832,0.208-1.247c0.312-1.457,0.78-3.277,1.3-4.576
	c0.312-0.832,0.676-1.82,1.145-2.6c0.104-0.156,0.155-0.259,0.26-0.469c0.207-0.259,0.312-0.519,0.52-0.884
	c0.625-0.988,1.196-1.662,1.977-2.497c0.676-0.726,1.456-1.403,2.34-2.027c0.572-0.363,1.196-0.729,1.82-1.092
	c1.04-0.519,1.509-0.729,2.549-1.143l1.611-0.573c1.664-0.415,3.172-0.884,4.939-0.936c2.601-0.207,5.305,0,7.75,0.884
	c2.392,0.884,4.628,2.131,6.552,3.744l1.196,1.04c0.261,0.209,0.468,0.521,0.729,0.729c0.104,0.155,0.259,0.262,0.364,0.365
	l2.703,3.171c0.208,0.259,0.417,0.521,0.624,0.78c0.156,0.156,0.261,0.259,0.364,0.417l0.364,0.311
	c0.26-0.417,0.26-0.625,0.156-1.195c-0.209-1.301-0.624-2.393-1.249-3.484c-0.052-0.104-0.052-0.156-0.104-0.262l-0.52-0.884
	c-0.104-0.208-0.209-0.312-0.261-0.467c-0.207-0.314-0.416-0.625-0.571-0.884c-0.208-0.366-0.364-0.521-0.625-0.833l-0.208-0.417
	c-0.052,0-0.052,0-0.052,0l-0.936-1.247c-0.104-0.156-0.261-0.312-0.312-0.415c-0.52-0.78-1.092-1.301-1.664-1.978
	c-0.208-0.259-0.469-0.57-0.676-0.78l-0.676-0.726c-0.26-0.262-0.469-0.521-0.729-0.729c-0.26-0.259-0.468-0.521-0.729-0.78
	c-0.623-0.573-1.352-1.144-2.027-1.561c-0.156-0.104-0.26-0.208-0.416-0.311c-0.625-0.417-1.196-0.78-1.873-1.092
	c-0.312-0.155-0.571-0.262-0.987-0.417l-0.676-0.259c-0.052,0-0.052-0.052-0.104-0.052c0,0,0,0-0.054,0
	c-1.3-0.469-2.704-0.573-4.107-0.573c-0.521,0-0.885,0-1.353,0.052c-0.936,0.104-1.455,0.313-2.288,0.573c-0.052,0-0.052,0-0.052,0
	l-1.039,0.363c-0.312,0.21-0.677,0.366-0.989,0.469c-1.092,0.571-2.548,1.509-3.483,2.339l-2.081,1.926
	c-0.416,0.467-0.832,0.884-1.196,1.351c-0.416,0.417-1.039,1.195-1.352,1.613c-0.312,0.415-0.624,0.78-0.885,1.247l-1.143,1.716
	c-0.053,0.155-0.209,0.313-0.261,0.469c-0.26,0.467-0.572,0.832-0.832,1.351c-0.26,0.625-0.676,1.25-1.04,1.872
	c-0.729,1.405-1.768,3.588-2.132,5.097l-0.936,3.484c-0.156,0.884-0.624,4.109-0.675,5.045c0,0.156-0.053,0.208-0.053,0.312
	c0,0.104,0,0.155,0,0.259c0,0.625-0.104,0.677-0.104,1.301l-0.156,1.144c0,0.208,0.052,0.311,0,0.521
	c0,0.259-0.052,0.726-0.052,0.988l-0.157,1.872c0,0.625-0.104,1.195-0.156,1.506c0,0.21,0.052,0.262,0,0.469
	c-0.156,0.884,0.052,0.884-0.261,1.768c-0.468,0.156-2.079,0.78-2.599,1.091c-0.26,0.156-0.416,0.262-0.573,0.573
	c-0.259,0.519-0.052,2.6-0.052,3.484c0,0.363-0.052,0.78-0.052,1.144v2.393c-0.052,1.665,0,3.744,0.155,5.46
	c0.053,0.311,0.105,0.625,0.157,0.988c0.259,0.104,0.572,0.363,0.833,0.467c0.104,0.054,0.104,0.054,0.208,0.106
	c0.728,0.363,1.404,0.884,2.132,1.247c0.884,0.467,3.224,0.311,4.369,0.416c0.416,0.052,0.728,0.105,1.195,0.105
	s0.78,0.052,1.196,0.052l7.957,0.104c0.987,0.155,5.721,0.155,6.916,0.104c0.884,0,1.664,0.104,2.548,0.104
	c1.717,0,3.433-0.052,5.201-0.052c1.716,0.052,3.484,0,5.199,0l1.145-0.052c0.416,0,0.78,0,1.144,0c0.418,0,0.729-0.052,1.041-0.052
	h2.185c0.155-0.052,0.207-0.104,0.415-0.104s0.364,0,0.572,0c0.676,0,2.86-0.157,3.537-0.365c1.194-0.259,2.495-0.988,3.172-1.924
	c1.144-1.612,1.092-3.225,1.144-5.563c0-0.313-0.052-0.521-0.052-0.833v-5.877c0-1.402,0.156-2.079-1.04-2.546
	c-0.52-0.262-1.145-0.417-1.717-0.573c-0.312-0.104-0.416-0.156-0.623-0.26c-0.052-0.469,0-1.042,0-1.561l-0.156-1.353
	c-0.053-0.467-0.104-0.936-0.208-1.403c-0.052-0.521,0-0.884-0.052-1.405c-0.416,0.052-0.312,0.313-0.832,0
	c-0.261-0.104-0.312-0.311-0.676-0.259c0,0.363,0.104,0.936,0.104,1.351l0.104,1.353c0.052,0.208,0,0.467,0,0.729
	c0.104,0.467,0.052,1.247,0.156,1.924c0.052,0.415,0,0.936,0.052,1.351c0,0.261,0.053,0.052,0.053,0.261l0.312,6.604
	c0.104,0.884,0.104,1.82,0.208,2.756l0.156,2.652c-0.052,0.365,0,0.417,0.052,0.676c0,0.312-0.052,0.415,0,0.677
	c0.052,0.259,0,0.467,0.052,0.726c0.156,1.613,0.312,1.146-1.144,1.405c-2.809,0.521-8.425,0.729-11.233,0.729
	c-0.26,0-0.415,0.104-0.572,0.104c-0.884,0.052-3.64-0.052-4.576-0.052c-0.936,0-1.716-0.052-2.6-0.052c-0.469,0-0.885,0-1.353,0
	s-0.78-0.052-1.196-0.052c-0.52,0-0.831-0.052-1.299-0.052c-0.416-0.052-0.886,0-1.301,0c-0.832-0.052-1.768-0.155-2.548-0.155
	l-5.098-0.21c-0.623-0.052-2.079-0.052-2.547-0.104L52.1,90.954c-0.572,0-0.937-0.104-1.248-0.104c-0.677,0-1.405,0.052-2.029-0.052
	c-0.571-0.052-1.352,0.104-1.768-0.104c-0.156-0.988-0.208-1.924-0.208-2.966c0-0.623,0-2.65,0.052-3.119
	c0.052-0.365,0.104-1.195,0.104-1.561l1.3-12.896c0.052-0.521,0.104-0.988,0.052-1.561c0-0.363-0.052-1.143,0.052-1.509
	c0.364-0.052,0.936,0.262,1.249,0.417c0.155,0.104,0.155,0.052,0.312,0.156l3.172,1.351c0.779,0.417,2.86,1.25,3.848,1.613
	c3.226,1.25,5.201,1.872,8.737,2.445c0.521,0.052,0.988,0.104,1.508,0.155c1.353,0.104,1.196,0.052,2.393,0.052
	c0.728-0.052,1.456-0.156,2.235-0.259c0.989-0.104,1.873-0.363,2.861-0.469c0.207-0.052,0.416-0.104,0.675-0.156
	c0.209-0.052,0.521-0.052,0.677-0.104c0.416-0.104,0.988-0.208,1.404-0.312c0.468-0.052,0.832-0.208,1.3-0.313
	c2.029-0.415,5.044-1.403,6.864-2.287l1.612-0.884c0.572-0.365,0.988-0.729,1.353-1.195c0.052-0.052,0.104-0.158,0.155-0.262
	c0.104-0.259,0.053-0.259,0.053-0.259c-0.417-0.104-3.484,1.195-4.265,1.509l-4.107,1.716c-1.197,0.415-2.342,0.778-3.537,1.092
	c-0.416,0.104-1.612,0.363-1.977,0.259c-0.104-0.467,0.157-5.823,0.052-6.656c-0.052-0.365,0-1.301,0.053-1.768
	c0-0.262-0.104-0.573-0.104-0.884c0-0.781,0.104-3.64,0-4.161c0-0.208-0.052-0.415-0.104-0.573c-0.208-0.674-0.572-0.57-0.78,0.106
	c-0.468,1.143-0.26,1.506-0.363,2.702l0.052,5.981c0,0.262-0.052,0.625-0.052,0.884c0.052,0.936,0,1.872,0,2.808
	c0,0.314-0.052,0.625-0.052,0.884c-0.105,1.094,0.415,1.042-2.081,1.301c-0.729,0.052-1.455,0.104-2.235,0.104
	c-0.833,0-2.497-0.104-3.277-0.259c-0.208-0.052-0.883,0-1.04-0.158c-0.363-0.363,0.052-14.975,0.052-18.304
	c0-1.612-0.155-4.316,0.885-5.097c0.623-0.415,1.352-0.729,2.028-0.988l1.3-0.519c0.208-0.106,0.624-0.209,0.728-0.417
	c-0.104-0.208-0.415-0.312-0.623-0.363c-0.78-0.262-1.924-0.104-2.601,0.259c-0.52,0.259-1.093,0.677-1.456,1.144
	c-0.832,0.936-0.936,0.677-1.248,2.237c-0.156,0.677-0.209,2.131-0.261,2.86c0,0.208,0,0.311-0.052,0.467l-0.155,10.453
	c0,0.366,0,0.625,0.052,0.988c0,0.366-0.052,0.625-0.052,0.988C63.593,65.992,63.645,70.881,63.488,71.296z"/>
<path fill-rule="evenodd" clip-rule="evenodd" fill="#FFFFFF" d="M98.799,69.528c0.052-0.208,0-0.052,0.156-0.208l0,0l0.104,0.156
	C98.955,69.528,98.955,69.528,98.799,69.528z M98.799,69.528L98.799,69.528L98.799,69.528z M92.975,71.921
	c0.155-0.052,0.155-0.052,0.261-0.208c0.831-0.78,0.831-1.874,0.623-2.966l-0.26-0.57c-0.104-0.313-0.416-0.833-0.572-1.094
	l-0.884-1.195v-0.052l-0.677-0.729c-0.104-0.208-0.259-0.363-0.415-0.467c-0.156-0.158-0.261-0.262-0.416-0.469l-1.769-1.664
	c-0.572-0.519-1.3-1.04-1.925-1.507c-0.311-0.209-0.675-0.521-0.987-0.729c-0.521-0.313-1.612-1.146-2.079-1.405l-1.613-0.988
	c-0.156-0.104-0.312-0.156-0.52-0.259c-1.3-0.833-3.277-1.665-4.681-2.29c-1.145-0.519-2.548-0.988-3.848-1.351
	c-1.613-0.521-3.745-0.936-5.201-1.716c-0.52-0.313-0.78-0.259-0.623-0.988c0.104-0.469,0.207-0.884,0.311-1.405
	c0-0.363-0.052-0.469,0.261-0.625c1.664-0.623,4.731,0.104,6.5,0.78l1.093,0.365h0.052l0.104,0.052
	c0.832,0.312,2.34,0.936,3.068,1.351c0.208,0.104,0.364,0.156,0.572,0.259l2.287,1.146c0.209,0.104,0.312,0.207,0.573,0.311
	l2.185,1.301c1.508,0.884,4.367,2.912,5.512,3.951l3.588,3.329c0.521,0.519,1.562,1.716,1.977,2.287
	c0.156,0.21,0.208,0.313,0.363,0.521c0.833,1.144,1.717,2.601,2.029,4.055c0.52,2.237-0.261,4.161-1.093,6.188
	c-0.104,0.21-0.26,1.146-0.26,1.354c0.521,0.104,1.092-0.312,1.456-0.573l0.312-0.311c1.353-1.872,1.248-4.628,0.78-6.709
	c-0.208-0.78-0.468-1.61-0.78-2.339c-0.883-2.027-1.663-3.225-2.912-4.838l-2.652-2.808l-3.952-2.808
	c-1.56-1.04-5.251-3.692-6.916-4.473c-0.209-0.104-0.364-0.208-0.625-0.311c-1.403-0.729-2.859-1.405-4.367-1.926l-1.403-0.415
	c-1.717-0.573-4.421-1.143-6.241-0.832c-0.52,0.104-0.988,0.156-1.509,0.365c-0.78,0.363-1.508,0.882-1.819,1.769
	c-0.469,1.455,0.675,2.808,1.819,3.378c1.145,0.573,2.756,1.04,4.057,1.405c0.261,0.052,0.52,0.156,0.729,0.156
	c1.196,0.311,2.392,0.677,3.536,1.04c0.207,0.104,0.416,0.208,0.676,0.259c0.624,0.21,1.248,0.521,1.873,0.833
	c0.104,0.054,0.207,0.106,0.311,0.158l3.174,1.82c0.363,0.208,0.728,0.467,1.092,0.674c0.675,0.365,1.248,0.884,1.923,1.249
	c0.521,0.312,1.353,0.936,1.872,1.351c0.156,0.104,0.312,0.262,0.469,0.417l2.393,2.183c0.104,0.052,0.155,0.155,0.207,0.262
	c0.677,0.936,1.456,1.976,1.717,3.171l0.208,0.729c0.104,0.259,0.053,0.052,0.156,0.363c0.155,0.677,0.416,1.354,0.78,2.03
	C92.975,71.921,92.923,71.869,92.975,71.921z"/>
<path fill-rule="evenodd" clip-rule="evenodd" fill="#FFFFFF" d="M80.701,87.938c-0.364,0-0.728-0.104-1.04-0.262
	c-0.832-0.415-0.832-1.872-0.727-2.756c0.103-0.988,0.103-2.338,0.103-3.378c0-0.417,0.104-0.78,0.104-1.042
	c-0.104-0.78-0.052-1.558-0.052-2.391c0-0.729-0.053-1.457-0.053-2.237c0-0.729-0.103-1.664,0.364-2.079
	c0.26-0.208,1.509-0.521,1.873-0.312c0.155,0.156,0.416,4.835,0.416,5.616v3.899c-0.054,0.208-0.054,0.208-0.054,0.469
	c0,0.208-0.052,0.259-0.052,0.467c-0.052,0.208-0.052,0.677-0.052,0.884c-0.052,0.573-0.207,1.198-0.312,1.716
	C81.169,86.95,80.962,87.729,80.701,87.938z M80.701,87.938L80.701,87.938L80.701,87.938z M80.91,72.649
	c-0.156-0.106,0-0.106,0-0.106l0,0V72.649z M80.91,72.649L80.91,72.649L80.91,72.649z M77.581,76.705
	c0.104,0.311-0.052,0.832-0.052,1.25c0,0.467-0.052,0.881-0.052,1.402c0,0.104,0,0.208-0.052,0.363
	c-0.104,0.417-0.053,1.822-0.053,2.341c0,0.988,0,0.676,0.053,1.405c0,0.208,0,0.467,0,0.729c0,0.208,0.052,0.312,0.052,0.571
	c0,0.729,0.104,1.872,0.26,2.6c0.208,1.092,0.156,0.936,1.3,1.509c0.988,0.467,2.341,0.674,3.12-0.417
	c0.521-0.833,0.572-2.549,0.625-3.588c0.052-0.625,0.104-2.131,0-2.808c-0.053-0.519,0.052-0.833,0.052-1.351
	c0-1.978,0.207-5.201-0.052-6.762c-0.156-0.884-0.572-1.299-1.301-1.561c-0.571-0.208-1.976-0.104-2.601-0.052
	c-0.364,0.104-0.468,0.208-0.623,0.832C77.997,73.896,77.529,76.341,77.581,76.705z"/>
<path fill-rule="evenodd" clip-rule="evenodd" fill="#FFFFFF" d="M58.393,87.783c0.103,0.104,0.051,0.052,0.103,0.208
	C58.34,87.99,58.393,88.042,58.393,87.783z M58.393,87.783L58.393,87.783L58.393,87.783z M57.456,73.375
	c-0.885,1.25-1.04,9.933-0.676,12.118c0.155,0.573,0.155,1.247,0.312,1.82c0.259,0.78,1.715,0.78,2.079-1.353l0.261-1.976
	c0.052-0.676-0.104-1.247-0.052-1.976l-0.052-2.079c-0.105-1.457-0.054-2.756-0.054-4.213c-0.052-0.573,0.209-1.405-0.155-1.872
	C58.859,73.585,57.976,73.375,57.456,73.375z M57.456,73.375L57.456,73.375L57.456,73.375z M59.64,88.822
	c0.364-0.313,0.468-0.884,0.573-1.301c0-0.156,0.104-0.311,0.104-0.519c0.155-0.729,0.416-2.652,0.468-3.433
	c0-0.262,0.052-0.417,0.052-0.625c0-0.156,0-0.415,0-0.625c0.053-0.884,0.156-1.559,0.053-2.339c-0.104-0.78,0-1.716-0.104-2.497
	c-0.208-1.457-0.104-2.756-0.78-4.42c-0.312-0.78-0.571-0.729-1.664-0.884c-1.769-0.259-2.652,0.677-2.912,2.186
	c-0.155,1.403,0,3.588,0,5.043c0,0.469-0.053,0.832-0.053,1.301v3.796c0,0.467,0,0.832,0.053,1.299c0,0.262,0.053,0.936,0.104,1.146
	c0.207,0.623,0.104,0.623,0.416,1.507c0.052,0.208,0.104,0.259,0.261,0.365H59.64z"/>
<path fill-rule="evenodd" clip-rule="evenodd" fill="#FFFFFF" d="M67.856,80.552l0.26-4.472c0.104-0.363,0.937-0.623,1.301-0.519
	c0.208,0.052,0.312,0.104,0.468,0.259c0.571,0.729,0.52,2.445,0.52,3.588c0,0.676,0,1.301,0,1.924
	c-0.052,2.03,0.261,3.069-0.207,5.46c-0.209,1.146-1.457,2.652-2.029,0.21C67.804,85.286,67.909,82.268,67.856,80.552z
	 M67.856,80.552L67.856,80.552L67.856,80.552z M66.349,78.68c0,0.052,0.052,0.469,0.052,0.625c-0.052,0.208-0.052,0.415-0.052,0.573
	l0.052,2.39c0.053,0.366,0.053,0.833,0.053,1.25c0,2.808-0.677,4.939,2.079,5.46c0.312,0.052,2.08-0.104,2.288-0.262
	c0.521-0.311,0.937-3.223,0.937-4.107c0-0.832,0-1.716,0-2.601c0.053-0.78-0.104-1.768,0-2.445c0.104-0.57,0.053-1.768,0.053-2.497
	c0-0.726-0.053-1.506-0.416-2.079c-0.312-0.363-0.364-0.363-0.729-0.573c-0.677-0.259-3.017-0.155-3.275,0.21
	c-0.261,0.363-0.521,0.936-0.625,1.351l-0.052,0.262c-0.157,0.674-0.26,1.247-0.26,1.976C66.453,78.421,66.349,78.628,66.349,78.68z
	"/>
<path fill-rule="evenodd" clip-rule="evenodd" fill="#FFFFFF" d="M98.799,69.528c0.156,0,0.156,0,0.26-0.104l-0.104-0.104
	c0-0.052,0-0.052,0-0.052C98.799,69.476,98.851,69.32,98.799,69.528z"/>
<path fill-rule="evenodd" clip-rule="evenodd" fill="#FFFFFF" d="M58.549,87.99c-0.105-0.208-0.054-0.104-0.209-0.208
	C58.393,88.042,58.34,87.938,58.549,87.99z"/>
<path fill-rule="evenodd" clip-rule="evenodd" fill="#FFFFFF" d="M51.735,52.419c0,0.052,0.104,0.156,0.053,0
	C51.788,52.315,51.735,52.264,51.735,52.419z"/>
<path fill-rule="evenodd" clip-rule="evenodd" fill="#FFFFFF" d="M80.91,72.701l0.052-0.106c0-0.052-0.052-0.052-0.052-0.052
	S80.754,72.595,80.91,72.701z"/>
<path fill-rule="evenodd" clip-rule="evenodd" fill="#FFFFFF" d="M93.078,75.302c0,0.155,0.052,0.104,0.052,0
	C93.183,75.248,93.078,75.248,93.078,75.302z"/>
<path fill-rule="evenodd" clip-rule="evenodd" fill="#FFFFFF" d="M71.913,71.503c-0.053,0-0.053,0.104,0,0.104
	C71.965,71.607,71.965,71.503,71.913,71.503z"/>
<path fill-rule="evenodd" clip-rule="evenodd" fill="#FFFFFF" d="M13.409,79.616H6.285v-1.144h2.652v-3.484H6.285v-1.195h7.125
	v1.195H9.977v3.484h3.433V79.616z M13.409,79.616L13.409,79.616L13.409,79.616z M13.409,72.18H6.285v-1.195h7.125V72.18z
	 M13.409,72.18L13.409,72.18L13.409,72.18z M9.768,65.367v-2.808c0.053,0,0.105,0,0.208,0c0.208,0,0.416,0,0.468,0
	c0.988,0,1.768,0.262,2.34,0.832c0.571,0.625,0.832,1.405,0.832,2.445c0,0.573-0.104,1.144-0.261,1.561
	c-0.155,0.467-0.415,0.884-0.779,1.195c-0.312,0.363-0.729,0.625-1.197,0.781c-0.468,0.208-0.988,0.259-1.507,0.259
	c-0.573,0-1.041-0.052-1.509-0.259c-0.468-0.156-0.831-0.469-1.195-0.833c-0.364-0.311-0.573-0.729-0.781-1.195
	c-0.155-0.469-0.26-0.988-0.26-1.509c0-0.573,0.105-1.04,0.312-1.509c0.208-0.415,0.52-0.832,0.936-1.195l0.625,0.884
	c-0.261,0.208-0.468,0.467-0.625,0.78c-0.104,0.311-0.208,0.677-0.208,1.04c0,0.78,0.259,1.405,0.727,1.872
	c0.52,0.521,1.145,0.729,1.977,0.729c0.78,0,1.456-0.208,1.976-0.729c0.468-0.467,0.729-1.144,0.729-1.872
	c0-0.677-0.157-1.195-0.468-1.561c-0.312-0.415-0.729-0.571-1.248-0.571h-0.104v1.662H9.768z M9.768,65.367L9.768,65.367
	L9.768,65.367z M13.409,61.312H6.285v-1.144h7.125V61.312z M13.409,61.312L13.409,61.312L13.409,61.312z M13.409,58.504H6.285V54.55
	h0.988v2.808h1.768V54.55h1.04v2.808h2.288V54.55h1.041V58.504z M13.409,58.504L13.409,58.504L13.409,58.504z M13.409,53.2H6.024
	l4.369-4.524c0.104-0.104,0.261-0.262,0.364-0.365c0.156-0.156,0.312-0.259,0.468-0.415h-4.94v-1.04h7.436l-4.472,4.576
	c-0.104,0.156-0.259,0.259-0.363,0.363c-0.157,0.104-0.261,0.259-0.417,0.365h4.94V53.2z M13.409,53.2L13.409,53.2L13.409,53.2z
	 M13.409,45.191H6.285v-1.144h7.125V45.191z M13.409,45.191L13.409,45.191L13.409,45.191z M13.409,43.111l-6.137-3.642v3.018H6.285
	v-4.786l6.083,3.537v-3.588h1.041V43.111z M13.409,43.111L13.409,43.111L13.409,43.111z M10.6,35.101v-1.976l-1.611,0.729
	c-0.104,0.052-0.208,0.104-0.364,0.104c-0.104,0.052-0.26,0.104-0.416,0.156c0.104,0.052,0.26,0.106,0.416,0.158
	c0.104,0,0.261,0.052,0.364,0.104L10.6,35.101z M10.6,35.101L10.6,35.101L10.6,35.101z M13.409,31.93l-1.82,0.78v2.808l1.82,0.833
	v1.247l-7.385-3.484l7.385-3.43V31.93z M13.409,31.93L13.409,31.93L13.409,31.93z M8.001,24.284
	c-0.261,0.365-0.468,0.676-0.625,1.042c-0.104,0.363-0.208,0.778-0.208,1.143c0,0.781,0.259,1.455,0.779,1.924
	c0.468,0.469,1.145,0.729,1.925,0.729s1.404-0.259,1.924-0.729c0.468-0.469,0.729-1.04,0.729-1.768c0-0.415-0.052-0.832-0.209-1.195
	c-0.155-0.417-0.364-0.78-0.675-1.146h1.3c0.208,0.313,0.415,0.676,0.52,1.042c0.104,0.363,0.156,0.778,0.156,1.195
	c0,0.521-0.104,1.04-0.261,1.509c-0.207,0.467-0.468,0.884-0.831,1.195c-0.312,0.363-0.729,0.625-1.145,0.832
	c-0.468,0.156-0.988,0.259-1.507,0.259c-0.52,0-1.041-0.104-1.457-0.259c-0.468-0.208-0.883-0.469-1.247-0.832
	c-0.364-0.363-0.625-0.729-0.781-1.195c-0.155-0.469-0.26-0.988-0.26-1.509c0-0.417,0.052-0.781,0.157-1.195
	c0.156-0.366,0.311-0.729,0.572-1.094L8.001,24.284z M8.001,24.284L8.001,24.284L8.001,24.284z M15.333,27.769
	c0.052-0.259,0.104-0.519,0.156-0.726c0-0.21,0.052-0.366,0.052-0.521c0-0.363-0.104-0.677-0.259-0.884
	c-0.104-0.156-0.312-0.259-0.572-0.259c-0.312,0-0.521,0.052-0.677,0.259c-0.104,0.156-0.208,0.415-0.208,0.832v0.052h-0.416v0.415
	h0.884c0,0,0-0.052,0-0.104s0-0.052,0-0.104c0-0.207,0.052-0.363,0.104-0.467c0.052-0.104,0.156-0.158,0.259-0.158
	c0.105,0,0.209,0.054,0.261,0.106c0.052,0.104,0.104,0.208,0.104,0.363c0,0.155-0.052,0.311-0.052,0.521
	c-0.052,0.156-0.104,0.415-0.156,0.674H15.333z M15.333,27.769L15.333,27.769L15.333,27.769z M9.873,16.796
	c-0.364,0-0.729,0.052-1.041,0.156c-0.311,0.155-0.624,0.365-0.831,0.573c-0.261,0.259-0.468,0.519-0.625,0.832
	c-0.104,0.312-0.156,0.674-0.156,0.988c0,0.363,0.052,0.729,0.156,1.04c0.157,0.311,0.364,0.573,0.625,0.832
	c0.208,0.259,0.52,0.415,0.831,0.573c0.312,0.104,0.677,0.208,1.041,0.208c0.363,0,0.675-0.104,1.04-0.208
	c0.312-0.158,0.572-0.313,0.832-0.573c0.261-0.259,0.468-0.521,0.624-0.832c0.105-0.312,0.157-0.677,0.157-1.04
	c0-0.313-0.052-0.676-0.157-0.936c-0.155-0.311-0.363-0.625-0.624-0.884c-0.26-0.208-0.52-0.417-0.832-0.573
	C10.548,16.848,10.236,16.796,9.873,16.796z M9.873,16.796L9.873,16.796L9.873,16.796z M9.873,15.549
	c0.52,0,0.988,0.104,1.456,0.311c0.416,0.156,0.833,0.469,1.197,0.832c0.363,0.363,0.624,0.781,0.831,1.248
	c0.157,0.469,0.261,0.936,0.261,1.405c0,0.519-0.104,1.04-0.261,1.509c-0.207,0.467-0.468,0.884-0.831,1.195
	c-0.364,0.363-0.781,0.677-1.197,0.833c-0.468,0.208-0.936,0.311-1.456,0.311c-0.52,0-0.988-0.104-1.457-0.311
	c-0.415-0.156-0.831-0.469-1.195-0.833c-0.364-0.363-0.625-0.78-0.833-1.195c-0.155-0.469-0.26-0.99-0.26-1.509
	c0-0.469,0.105-0.988,0.26-1.457c0.208-0.415,0.468-0.832,0.833-1.195c0.364-0.363,0.78-0.676,1.195-0.832
	C8.885,15.653,9.353,15.549,9.873,15.549z M9.873,15.549L9.873,15.549L9.873,15.549z M4.36,17.94
	c0.312,0.052,0.573,0.158,0.78,0.365c0.156,0.156,0.26,0.363,0.26,0.57c0,0.052,0,0.104,0,0.156c0,0.054-0.052,0.054-0.052,0.106
	L5.192,19.76c0,0.052,0,0.104,0,0.104c0,0.055,0,0.055,0,0.106c0,0.104,0,0.208,0.052,0.259c0.052,0.052,0.157,0.104,0.261,0.104
	v0.467c-0.364-0.052-0.572-0.208-0.729-0.363c-0.208-0.104-0.259-0.312-0.259-0.573c0-0.052,0-0.104,0-0.155s0-0.052,0-0.156
	l0.155-0.521c0-0.052,0-0.052,0-0.104c0.052-0.052,0.052-0.104,0.052-0.156c0-0.104-0.052-0.156-0.104-0.259
	c-0.052-0.052-0.155-0.104-0.26-0.104V17.94z M4.36,17.94L4.36,17.94L4.36,17.94z M13.409,14.248H6.285v-3.952h0.988v2.808h1.768
	v-2.808h1.04v2.808h2.288v-2.808h1.041V14.248z M13.409,14.248L13.409,14.248L13.409,14.248z M12.005,9.36l-0.416-0.936
	c0.311-0.104,0.572-0.262,0.727-0.469c0.157-0.259,0.209-0.519,0.209-0.884c0-0.363-0.105-0.625-0.261-0.832
	c-0.208-0.208-0.468-0.312-0.78-0.312c-0.416,0-0.78,0.312-1.092,1.04c-0.052,0.104-0.104,0.155-0.104,0.208
	c-0.416,0.78-0.78,1.353-1.093,1.561C8.885,9.047,8.521,9.151,8.104,9.151c-0.625,0-1.092-0.208-1.457-0.571
	c-0.312-0.417-0.52-0.936-0.52-1.561c0-0.519,0.105-0.988,0.312-1.351C6.648,5.355,6.908,5.096,7.324,4.94l0.468,0.936
	C7.533,5.98,7.376,6.188,7.272,6.343C7.169,6.501,7.117,6.708,7.117,6.916c0,0.311,0.104,0.573,0.26,0.728
	C7.533,7.852,7.74,7.956,8.001,7.956c0.468,0,0.831-0.415,1.195-1.247C9.248,6.656,9.248,6.604,9.3,6.553
	c0.312-0.677,0.625-1.146,0.936-1.405c0.312-0.259,0.729-0.417,1.197-0.417c0.625,0,1.196,0.209,1.612,0.625
	c0.364,0.469,0.572,1.04,0.572,1.768c0,0.573-0.156,1.092-0.416,1.457C12.941,8.995,12.525,9.205,12.005,9.36z"/>
</svg>
