<?xml version="1.0" standalone="no"?>
<!DOCTYPE svg PUBLIC "-//W3C//DTD SVG 1.1//EN" "http://www.w3.org/Graphics/SVG/1.1/DTD/svg11.dtd">
<svg xmlns="http://www.w3.org/2000/svg" xmlns:xlink="http://www.w3.org/1999/xlink" version="1.1" id="Layer_1" x="0px" y="0px" viewBox="0 0 455.3 171.4" style="enable-background:new 0 0 455.3 171.4;" xml:space="preserve" width="455.29998779296875" height="171.39999389648438">
<style type="text/css">
	.st0{fill:url(#SVGID_1_);}
	.st1{fill:#5DB6B4;}
</style>
<g>
	<linearGradient id="SVGID_1_" gradientUnits="userSpaceOnUse" x1="75.3666" y1="171.3188" x2="75.3666" y2="0">
		<stop offset="0" style="stop-color:#69489D"/>
		<stop offset="1" style="stop-color:#53B5A8"/>
	</linearGradient>
	<path class="st0" d="M150.5,124.7V46.6c0-0.1,0-0.2,0-0.3c0-0.8-0.1-1.7-0.4-2.5c-0.3-0.9-0.8-1.7-1.5-2.5   c-0.1-0.1-0.3-0.2-0.4-0.4c-0.2-0.2-0.3-0.3-0.5-0.4c-0.3-0.2-0.7-0.4-1-0.6L78.2,0.6C77.3,0.2,76.4,0,75.4,0c-1,0-1.9,0.2-2.8,0.6   h0L3.7,40.2c-0.6,0.3-1.2,0.7-1.7,1.2c-1.2,1.2-1.8,2.7-1.8,4.4c0,0.1,0,0.3,0,0.4h0v78.9h0c0,0.1,0,0.3,0,0.4   c0,1.7,0.6,3.2,1.8,4.4c0.5,0.5,1,0.9,1.7,1.2l68.9,39.5h0c0.8,0.4,1.8,0.6,2.8,0.6c1,0,2-0.2,2.8-0.6l68.5-39.4   c0.3-0.2,0.7-0.4,1-0.6c0.2-0.1,0.4-0.2,0.5-0.4c0.2-0.1,0.3-0.2,0.4-0.4c0.7-0.8,1.2-1.6,1.5-2.5c0.3-0.8,0.4-1.7,0.4-2.5   C150.5,124.9,150.5,124.8,150.5,124.7z M131.7,123.3c-4.1,4.1-9.1,6.2-14.9,6.3H52.5c-0.3,0-0.6,0-1,0c-1.1,0-1.9-0.2-2.5-0.5   c-1.3-0.7-1.4-2.1-0.3-4.2l14.7-23.8l31.6,0c0.1,0,0.1,0,0.1,0h0.1c1,0,1.9-0.1,2.6-0.3c3.3-0.8,3.8-3.2,1.6-7.2l-4.2-7.9   L80.8,62.4c-2.9-4.9-5.8-4.9-8.7,0l-41.3,67.2c-1.2,0-2.3-0.2-3.4-0.5c-0.6-0.2-1.2-0.5-1.8-0.8c-0.6-0.3-1.2-0.6-1.8-1   c-0.7-0.5-1.3-1-1.9-1.5c-0.6-0.5-1.1-1-1.7-1.6C13,116.6,12,107.9,17.4,98c0,0,0-0.1,0.1-0.1l37.7-62.3c1.1-1.8,2.2-3.5,3.4-5.2h0   c0.8-1.2,1.7-2.4,2.8-3.5c4.2-4.2,9.3-6.3,15.2-6.3c5.9,0,11,2.1,15.2,6.3c1.2,1.2,2.3,2.5,3.1,3.9l0.2,0.3   c0.2,0.3,0.3,0.5,0.5,0.8l38.5,63.7c0.6,0.9,1.1,1.9,1.7,2.9c0.2,0.3,0.3,0.6,0.5,1c0.2,0.4,0.4,0.9,0.5,1.4   c0.2,0.5,0.3,0.9,0.5,1.3c0.1,0.5,0.2,1,0.3,1.5c0.3,1.4,0.4,2.9,0.4,4.5C138,114,135.9,119.1,131.7,123.3z"/>
</g>
<g>
	<g>
		<path class="st1" d="M225.1,82.5c-0.1-0.2-0.1-0.4-0.2-0.7c-0.1-0.2-0.2-0.5-0.3-0.7c-0.1-0.2-0.1-0.3-0.2-0.5    c-0.3-0.5-0.6-1-0.8-1.4l-19.3-31.9c-0.1-0.1-0.2-0.3-0.3-0.4l-0.1-0.1c-0.4-0.7-1-1.3-1.6-1.9c-2.1-2.1-4.6-3.1-7.6-3.1    c-3,0-5.5,1-7.6,3.1c-0.6,0.5-1,1.1-1.4,1.7h0c-0.6,0.8-1.2,1.7-1.7,2.6l-18.8,31.2c0,0,0,0,0,0.1c-2.7,4.9-2.2,9.3,1.4,13.1    c0.3,0.3,0.6,0.5,0.8,0.8c0.3,0.3,0.6,0.5,0.9,0.8c0.3,0.2,0.6,0.4,0.9,0.5c0.3,0.1,0.6,0.3,0.9,0.4c0.6,0.2,1.1,0.2,1.7,0.2    l20.7-33.6c1.4-2.4,2.9-2.4,4.3,0l7.1,11.7l2.1,3.9c1.1,2,0.9,3.2-0.8,3.6c-0.4,0.1-0.8,0.1-1.3,0.1h0c0,0,0,0-0.1,0l-15.8,0    l-7.3,11.9c-0.5,1-0.5,1.7,0.1,2.1c0.3,0.2,0.7,0.2,1.2,0.3c0.2,0,0.3,0,0.5,0h32.2c2.9,0,5.4-1.1,7.5-3.1    c2.1-2.1,3.1-4.6,3.1-7.6c0-0.8-0.1-1.5-0.2-2.2C225.3,83,225.2,82.8,225.1,82.5z"/>
		<path class="st1" d="M452.1,83.3c0-0.2-0.1-0.5-0.2-0.7c-0.1-0.2-0.1-0.4-0.2-0.7c-0.1-0.2-0.2-0.5-0.3-0.7    c-0.1-0.2-0.1-0.3-0.2-0.5c-0.3-0.5-0.6-1-0.8-1.4l-19.3-31.9c-0.1-0.1-0.2-0.3-0.3-0.4l-0.1-0.1c-0.4-0.7-1-1.3-1.6-1.9    c-2.1-2.1-4.6-3.1-7.6-3.1c-3,0-5.5,1-7.6,3.1c-0.6,0.5-1,1.1-1.4,1.7h0c-0.6,0.8-1.2,1.7-1.7,2.6L392,80.4c0,0,0,0,0,0.1    c-2.7,4.9-2.2,9.3,1.4,13.1c0.3,0.3,0.6,0.5,0.8,0.8c0.3,0.3,0.6,0.5,0.9,0.8c0.3,0.2,0.6,0.4,0.9,0.5c0.3,0.1,0.6,0.3,0.9,0.4    c0.6,0.2,1.1,0.2,1.7,0.2l20.7-33.6c1.4-2.4,2.9-2.4,4.3,0l7.1,11.7l2.1,3.9c1.1,2,0.9,3.2-0.8,3.6c-0.4,0.1-0.8,0.1-1.3,0.1h0    c0,0,0,0-0.1,0l-15.8,0l-7.3,11.9c-0.5,1-0.5,1.7,0.1,2.1c0.3,0.2,0.7,0.2,1.2,0.3c0.2,0,0.3,0,0.5,0h32.2c2.9,0,5.4-1.1,7.5-3.1    c2.1-2.1,3.1-4.6,3.1-7.6C452.3,84.7,452.2,84,452.1,83.3z"/>
		<path class="st1" d="M267.1,75.6c3.4-0.1,6-1.8,7.7-5c1.7-3.2,2.6-7.2,2.6-11.9c0-4.4-1.7-8.4-5.1-11.8c-3.4-3.4-7.4-5.2-11.8-5.2    h-23.9c-4.5,0-6.8,2.3-6.8,6.7v40.9c0,4.5,2.2,6.8,6.8,6.7c4.6,0,6.9-2.3,6.8-6.8V55.4h10.1h4.9c3.6,0,5.3,1.1,5.3,3.4    c0,2.2-1.7,3.3-5.3,3.3l-4.8,0c-4.6,0-6.9,2.3-6.9,6.8c0,2.2,1.2,4.6,3.5,7l13.6,16.9c2.2,2.3,4.5,3.4,6.8,3.3    c4.5,0,6.7-2.2,6.8-6.8c0-2.2-0.7-3.9-2-5.3L267.1,75.6z"/>
		<path class="st1" d="M331.9,48.4c0-4.3-2.2-6.5-6.4-6.6l-34.4-0.1c-4.5,0.1-6.8,2.4-6.8,6.9v41c0,4.4,2.3,6.6,6.8,6.6h34    c4.5,0,6.7-2.3,6.7-6.8c0-4.6-2.3-6.8-6.9-6.9h-27V55.4H325C329.6,55.4,331.9,53,331.9,48.4z"/>
		<path class="st1" d="M307.9,62.2c-4.4,0.1-6.7,2.4-6.7,6.9c0,4.5,2.3,6.8,6.8,6.7h13.7c4.5,0,6.8-2.3,6.9-6.8    c-0.1-4.5-2.4-6.8-6.9-6.8H307.9z"/>
		<path class="st1" d="M378.4,41.9c-3.8,0.1-5.7,2.1-5.8,6v22.8l-20.4-26c-1.5-1.7-3.4-2.6-5.9-2.8c-5.2,0-7.7,2-7.7,5.9v42.4    c0,4,2.6,6,7.7,6c3.9,0,5.9-2,5.9-5.9V67.5l20.5,25.9c1.5,1.8,3.3,2.8,5.7,2.8c5.1,0,7.7-2,7.8-5.9L386.2,48    C386.1,44,383.5,41.9,378.4,41.9z"/>
	</g>
</g>
<g>
	<path class="st1" d="M163.6,112.2v14.2c0,1.6,1.3,2.8,2.8,2.8h4.2v-1.6h-4.2c-0.6,0-1-0.7-1-1.3v-14.2c0-0.6,0.4-1.3,1-1.3h4.5   v-1.6h-4.5C164.8,109.4,163.6,110.7,163.6,112.2z"/>
	<polygon class="st1" points="179.8,119.4 184.4,119.4 184.4,117.9 179.8,117.9 179.8,111 185.5,111 185.5,109.4 177.9,109.4    177.9,129.3 185.6,129.3 185.6,127.7 179.8,127.7  "/>
	<polygon class="st1" points="198.4,125.2 194.4,109.4 193.3,109.4 193.3,109.4 192.9,109.4 191.8,109.4 191.8,129.3 193.6,129.3    193.6,113.9 197.3,129.3 198.6,129.3 198.6,129.3 199.1,129.3 200.2,129.3 200.2,109.4 198.4,109.4  "/>
	<polygon class="st1" points="206.2,111 209.7,111 209.7,129.3 211.6,129.3 211.6,111 215.1,111 215.1,109.4 206.2,109.4  "/>
	<path class="st1" d="M229.1,116.9v-4.6c0-1.6-1.3-2.8-2.8-2.8H221v19.8h1.8v-9.6h2.4l2.9,9.6h2l-2.9-9.7   C228.2,119.2,229.1,118.3,229.1,116.9z M227.3,112.2v4.6c0,0.6-0.4,1.3-1,1.3h-3.4V111h3.4C226.9,111,227.3,111.6,227.3,112.2z"/>
	<path class="st1" d="M241.7,109.3H239c-1.5,0-2.8,1.3-2.8,2.9v14.1c0,1.6,1.3,2.9,2.8,2.9h2.7c1.5,0,2.8-1.3,2.8-2.9v-14.1   C244.5,110.7,243.2,109.3,241.7,109.3z M241.7,127.7H239c-0.6,0-1-0.7-1-1.4v-14.1c0-0.6,0.4-1.4,1-1.4h2.7c0.6,0,1,0.7,1,1.4v14.1   C242.7,127,242.3,127.7,241.7,127.7z"/>
	<path class="st1" d="M268.5,109.4h-5.3v19.8h5.3c1.6,0,2.8-1.3,2.8-2.8v-14.2C271.3,110.7,270.1,109.4,268.5,109.4z M268.5,127.7   H265V111h3.4c0.6,0,1,0.7,1,1.3v14.2C269.5,127,269.1,127.7,268.5,127.7z"/>
	<polygon class="st1" points="280.5,119.4 285.1,119.4 285.1,117.9 280.5,117.9 280.5,111 286.2,111 286.2,109.4 278.6,109.4    278.6,129.3 286.3,129.3 286.3,127.7 280.5,127.7  "/>
	<polygon class="st1" points="298.4,111 301.9,111 301.9,129.3 303.8,129.3 303.8,111 307.3,111 307.3,109.4 298.4,109.4  "/>
	<path class="st1" d="M321.3,116.9v-4.6c0-1.6-1.3-2.8-2.8-2.8h-5.3v19.8h1.8v-9.6h2.4l2.9,9.6h2l-2.9-9.7   C320.4,119.2,321.3,118.3,321.3,116.9z M319.5,112.2v4.6c0,0.6-0.4,1.3-1,1.3h-3.4V111h3.4C319.1,111,319.5,111.6,319.5,112.2z"/>
	<polygon class="st1" points="330.2,119.4 334.8,119.4 334.8,117.9 330.2,117.9 330.2,111 335.9,111 335.9,109.4 328.3,109.4    328.3,129.3 336,129.3 336,127.7 330.2,127.7  "/>
	<rect x="342.4" y="109.4" class="st1" width="1.9" height="19.8"/>
	<polygon class="st1" points="358.3,125.2 354.3,109.4 353.3,109.4 352.8,109.4 352.8,109.4 351.7,109.4 351.7,129.3 353.6,129.3    353.6,113.9 357.3,129.3 358.6,129.3 359.1,129.3 359.1,129.3 360.1,129.3 360.1,109.4 358.3,109.4  "/>
	<path class="st1" d="M371.1,109.4L371.1,109.4h-0.2h-1l-3.7,19.8h1.8l1.1-6.3h3.7l1.1,6.3h1.8l-3.7-19.8H371.1z M369.4,121.4   l1.6-8.5l1.5,8.5H369.4z"/>
	<polygon class="st1" points="387.9,124.7 384.8,109.4 383.8,109.4 383.8,109.4 383.3,109.4 382.2,109.4 382.2,129.3 384.1,129.3    384.1,114.5 387,128.7 388.8,128.7 391.5,114.7 391.5,129.3 393.4,129.3 393.4,109.4 390.6,109.4  "/>
	<polygon class="st1" points="402.5,119.4 407.1,119.4 407.1,117.9 402.5,117.9 402.5,111 408.2,111 408.2,109.4 400.6,109.4    400.6,129.3 408.3,129.3 408.3,127.7 402.5,127.7  "/>
	<polygon class="st1" points="421.1,125.2 417.1,109.4 416,109.4 415.6,109.4 415.6,109.4 414.5,109.4 414.5,129.3 416.3,129.3    416.3,113.9 420,129.3 421.3,129.3 421.8,129.3 421.8,129.3 422.9,129.3 422.9,109.4 421.1,109.4  "/>
	<polygon class="st1" points="428.9,111 432.4,111 432.4,129.3 434.3,129.3 434.3,111 437.8,111 437.8,109.4 428.9,109.4  "/>
	<path class="st1" d="M449.3,109.3h-2.7c-1.5,0-2.8,1.3-2.8,2.9v14.1c0,1.6,1.3,2.9,2.8,2.9h2.7c1.5,0,2.8-1.3,2.8-2.9v-14.1   C452.2,110.7,450.9,109.3,449.3,109.3z M449.3,127.7h-2.7c-0.6,0-1-0.7-1-1.4v-14.1c0-0.6,0.4-1.4,1-1.4h2.7c0.6,0,1,0.7,1,1.4   v14.1C450.3,127,449.9,127.7,449.3,127.7z"/>
</g>
</svg>