<?xml version="1.0" standalone="no"?>
<!DOCTYPE svg PUBLIC "-//W3C//DTD SVG 1.1//EN" "http://www.w3.org/Graphics/SVG/1.1/DTD/svg11.dtd">
<svg xmlns="http://www.w3.org/2000/svg" xmlns:xlink="http://www.w3.org/1999/xlink" version="1.1" id="Layer_1" x="0px" y="0px" width="373" height="97.2750015258789" viewBox="0 0 373 97.275" enable-background="new 0 0 373 97.275" xml:space="preserve">
<path fill="#1C416E" d="M325.257,40.339c3.457,0.145,4.178,0.577,5.475,3.746c3.602,8.645,9.581,23.988,11.31,28.958  c0.432,1.225,0.576,2.306,0.576,3.53c0,1.657-0.648,3.817-1.729,6.123c-1.081,2.377-2.377,3.025-3.17,3.025  c-0.72,0-1.369-0.216-2.665-1.513c-0.721-0.648-1.297-1.009-2.161-1.009c-1.369,0-3.17,1.945-3.17,4.034  c0,1.729,2.017,3.746,5.043,3.746c2.881,0,6.555-0.865,10.229-11.525c4.466-12.822,11.094-30.399,13.327-35.442  c1.296-2.881,1.729-3.457,5.33-3.674V38.25H349.82v2.089l3.746,0.36c1.225,0.145,1.368,1.009,1.009,2.45  c-1.081,4.322-4.826,15.199-7.996,23.844h-0.144c-3.314-8.717-6.195-16.568-8.861-24.133c-0.432-1.297-0.575-2.089,1.081-2.233  l3.098-0.288V38.25h-16.496V40.339z"/>
<path fill="#1C416E" d="M305.208,41.132h5.188V66.2c0,7.348,5.475,8.212,7.995,8.212c3.674,0,7.132-1.873,9.221-3.17l-0.576-1.513  c-1.729,0.721-3.313,0.937-5.114,0.937c-2.449,0-4.755-1.729-4.755-7.203V41.132h17.572V38.25h-17.572v-9.076h-2.089l-4.394,9.076  h-5.476V41.132z"/>
<path fill="#1C416E" d="M284.999,73.548h17.576v-2.089c-5.114-0.36-5.402-0.504-5.402-4.179V37.818l-0.505-0.433l-11.309,1.801  v1.802l2.737,0.36c1.872,0.287,2.305,0.647,2.305,3.241v22.69c0,3.675-0.216,3.818-5.402,4.179V73.548z"/>
<path fill="#1C416E" d="M289.321,26.437c0,2.593,1.801,4.395,4.394,4.395c2.594,0,4.395-1.802,4.395-4.395s-1.801-4.394-4.395-4.394  C291.122,22.043,289.321,23.844,289.321,26.437"/>
<path fill="#1C416E" d="M264.432,73.548h17.576v-2.089c-5.114-0.36-5.402-0.504-5.402-4.179V20.529l-0.504-0.432l-11.31,1.801v1.801  l2.737,0.288c1.873,0.216,2.306,0.576,2.306,3.313V67.28c0,3.675-0.217,3.818-5.403,4.179V73.548z"/>
<path fill="#1C416E" d="M244.523,73.548H262.1v-2.089c-5.114-0.36-5.403-0.504-5.403-4.179V37.818l-0.504-0.433l-11.31,1.801v1.802  l2.737,0.36c1.873,0.287,2.306,0.647,2.306,3.241v22.69c0,3.675-0.217,3.818-5.402,4.179V73.548z"/>
<path fill="#1C416E" d="M248.845,26.437c0,2.593,1.801,4.395,4.395,4.395c2.593,0,4.394-1.802,4.394-4.395s-1.801-4.394-4.394-4.394  C250.646,22.043,248.845,23.844,248.845,26.437"/>
<path fill="#1C416E" d="M215.358,61.806V50.425c0-1.801,0.145-2.953,0.721-4.106c1.729-3.458,4.755-5.042,8.788-5.042  c2.953,0,9.293,1.729,9.293,14.263c0,10.589-3.241,16.352-10.373,16.352c-3.818,0-6.627-1.944-7.924-5.547  C215.431,65.047,215.358,63.535,215.358,61.806 M203.545,23.699l2.737,0.288c1.873,0.216,2.306,0.576,2.306,3.313v46.535  l1.297,0.576l2.881-2.81c2.521,1.44,5.547,2.81,10.949,2.81c9.581,0,17.937-4.61,17.937-19.306c0-4.466-0.937-17.721-13.902-17.721  c-5.475,0-9.726,3.53-12.391,5.114V20.529l-0.504-0.432l-11.31,1.801V23.699z"/>
<path fill="#1C416E" d="M178.865,63.175c0-3.386,1.585-5.114,5.619-6.628c2.881-1.08,6.699-2.448,8.284-3.457v10.157  c0,5.834-4.466,7.347-7.275,7.347C181.026,70.594,178.865,67.425,178.865,63.175 M171.59,64.184c0,5.402,3.601,10.229,10.373,10.229  c4.178,0,8.428-2.81,10.732-4.322c1.01,2.665,2.161,4.322,4.683,4.322c2.666,0,5.764-0.792,8.5-2.161l-0.432-1.729  c-1.009,0.216-2.594,0.36-3.674,0.071c-1.297-0.288-2.521-1.656-2.521-6.194V46.967c0-4.178-0.937-9.581-11.813-9.581  c-8.14,0-14.551,4.25-14.551,8.213c0,2.305,2.665,3.386,4.034,3.386c1.512,0,1.944-0.793,2.305-2.018  c1.585-5.331,4.539-7.06,7.419-7.06c2.81,0,6.123,1.441,6.123,7.203v3.025c-1.801,1.873-8.788,3.674-14.479,5.476  C173.102,57.195,171.59,60.798,171.59,64.184z"/>
<path fill="#1C416E" d="M131.794,73.548h17.577v-2.089c-5.115-0.36-5.402-0.504-5.402-4.179V55.25h0.144  c2.954,4.683,8.068,10.95,11.814,14.769c2.666,2.665,5.475,3.529,7.78,3.673l5.403,0.217v-2.018  c-2.161-0.576-3.962-1.656-6.195-3.89c-4.466-4.394-10.085-11.237-12.822-15.127c-0.36-0.505-0.504-0.865,0.216-1.657  c3.458-3.962,5.763-6.051,8.212-7.852c2.449-1.802,4.25-2.666,8.428-3.098V38.25h-7.419c-2.449,0-3.098,0.36-4.539,2.089  c-2.089,2.521-9.22,11.454-10.877,13.903h-0.144V20.529l-0.504-0.432l-11.31,1.801v1.801l2.737,0.288  c1.873,0.216,2.305,0.576,2.305,3.313V67.28c0,3.675-0.216,3.818-5.402,4.179V73.548z"/>
<path fill="#1C416E" d="M90.214,73.548h17.577v-2.089c-5.114-0.36-5.403-0.504-5.403-4.179V50.425c0-1.801,0.145-2.81,0.72-3.963  c1.513-2.809,4.755-5.186,8.573-5.186c4.898,0,7.563,2.736,7.563,9.004v17c0,3.675-0.216,3.818-5.403,4.179v2.089h17.419h1.194  l-0.327-2.089c-0.043-0.003-0.796-0.007-0.838-0.01c-4.99-0.354-5.273-0.525-5.273-4.169V48.84c0-7.276-3.962-11.454-10.589-11.454  c-5.331,0-8.644,2.594-13.11,5.475l-1.008-5.475l-10.733,1.801v1.802l2.737,0.36c1.873,0.287,2.305,0.647,2.305,3.241v22.69  c0,3.675-0.216,3.818-5.403,4.179V73.548z"/>
<path fill="#1C416E" d="M64.448,63.175c0-3.386,1.585-5.114,5.619-6.628c2.881-1.08,6.699-2.448,8.284-3.457v10.157  c0,5.834-4.466,7.347-7.275,7.347C66.609,70.594,64.448,67.425,64.448,63.175 M57.172,64.184c0,5.402,3.602,10.229,10.373,10.229  c4.178,0,8.429-2.81,10.733-4.322c2.156,5.696,10.773,4.88,14.519,3.007l-2.015-1.679c-4.31,0.925-5.949-3.728-5.949-7.019V46.967  c0-4.178-0.937-9.581-11.813-9.581c-8.14,0-14.551,4.25-14.551,8.213c0,2.305,2.665,3.386,4.034,3.386  c1.513,0,1.945-0.793,2.305-2.018c1.584-5.331,4.539-7.06,7.42-7.06c2.809,0,6.123,1.441,6.123,7.203v3.025  c-1.8,1.873-8.788,3.674-14.479,5.476C58.685,57.195,57.172,60.798,57.172,64.184z"/>
<path fill="#1C416E" d="M6.313,74.481c2.436,0.482,4.965,0.407,7.944,0.407h9.015c11.029,0,15.908-0.955,20.149-3.394  c6.787-3.183,10.287-9.862,10.287-16.544c0-6.045-2.65-10.606-7-13.468c-3.71-2.441-7.699-2.441-10.35-2.865  c5.142-1.383,8.945-4.119,11.409-7.474c-2.623,1.402-5.848,2.448-10.027,3.071c-3.71,0.554-7.605,0.959-11.498,1.003  c-7.143,0.08-14.239-0.816-19.929-2.679V74.481z M19.268,67.238v-25.18h4.356c5.418,0,9.03,0.106,11.899,2.02  c3.294,2.23,4.25,6.268,4.25,9.986c0,4.356-1.169,8.924-4.781,11.262c-2.87,1.912-7.438,1.912-10.412,1.912H19.268z M6.313,27.761  c3.764,1.35,8.27,2.3,12.954,2.775V12.311h5.312c4.568,0,7.542,0.107,9.987,1.912c2.762,2.02,3.506,5.631,3.506,8.5  c0,2.637-0.52,5.199-1.646,7.249h0.001c5.604-1.075,10.816-2.076,14.652-7.4c0.055-0.554,0.083-1.107,0.083-1.661  c0-5.939-2.758-10.393-7.317-12.938c-2.369-1.339-4.884-2.373-7.632-2.534l-9.23-0.542c-3.674-0.215-8.331-0.288-12.943-0.141  c-2.651,0.085-5.29,0.313-7.727,0.823V27.761z"/>
<path fill="#1C416E" d="M365.413,67.542c-0.804-0.803-1.913-1.3-3.14-1.3c-1.226,0-2.336,0.497-3.139,1.3  c-0.804,0.804-1.301,1.913-1.301,3.14c0,1.226,0.497,2.336,1.301,3.139c0.803,0.804,1.913,1.301,3.139,1.301  c1.227,0,2.336-0.497,3.14-1.301c0.803-0.803,1.3-1.913,1.3-3.139C366.713,69.455,366.216,68.346,365.413,67.542 M362.273,65.379  c1.465,0,2.79,0.594,3.75,1.554c0.959,0.959,1.553,2.284,1.553,3.749c0,1.464-0.594,2.789-1.553,3.749  c-0.96,0.959-2.285,1.553-3.75,1.553c-1.464,0-2.79-0.594-3.749-1.553c-0.96-0.96-1.553-2.285-1.553-3.749  c0-1.465,0.593-2.79,1.553-3.749C359.483,65.973,360.81,65.379,362.273,65.379z"/>
<path fill="#1C416E" d="M361.836,68.488c0.474,0,1.05,0,1.05,0.915c0,1.058-0.702,1.058-1.092,1.058h-0.288v-1.973H361.836z   M360.447,67.888v5.588h1.059v-2.481h0.296l1.448,2.481h1.211l-1.753-2.701c0.939-0.245,1.271-0.897,1.271-1.532  c0-0.432-0.229-0.897-0.678-1.135c-0.398-0.203-0.762-0.22-1.431-0.22H360.447z"/>
</svg>