<?xml version="1.0" standalone="no"?>
<!DOCTYPE svg PUBLIC "-//W3C//DTD SVG 1.1//EN" "http://www.w3.org/Graphics/SVG/1.1/DTD/svg11.dtd">
<svg xmlns="http://www.w3.org/2000/svg" xmlns:xlink="http://www.w3.org/1999/xlink" version="1.1" id="Layer_1" x="0px" y="0px" viewBox="0 0 109.1 28.5" style="enable-background:new 0 0 109.1 28.5;" xml:space="preserve" width="109.0999984741211" height="28.5">
<style type="text/css">
	.st0{fill:#F3F3F2;}
	.st1{fill:#DA2D3E;}
</style>
<rect x="71.7" y="4.7" class="st0" width="4.5" height="14.5"/>
<polygon class="st0" points="99.4,8.1 99.4,10.4 106.4,10.4 106.4,13.7 99.4,13.7 99.4,15.9 107.4,15.9 107.4,19.2 95,19.2 95,4.9   107.2,4.9 107.2,8.1 "/>
<polygon class="st0" points="35,24.1 33.8,22.6 33.8,24.1 33.4,24.1 33.4,21.9 33.8,21.9 35,23.5 35,21.9 35.4,21.9 35.4,24.1 "/>
<polygon class="st0" points="40.5,22.3 40.5,24.1 40.1,24.1 40.1,22.3 39.4,22.3 39.4,21.9 41.2,21.9 41.2,22.3 "/>
<polygon class="st0" points="49.7,22.3 49.7,24.1 49.3,24.1 49.3,22.3 48.6,22.3 48.6,21.9 50.4,21.9 50.4,22.3 "/>
<path class="st0" d="M59,22.3l-0.4,1h0.9L59,22.3z M58.4,23.6l-0.2,0.5h-0.4l1-2.2h0.4l1,2.2h-0.4l-0.2-0.5H58.4z"/>
<polygon class="st0" points="63.4,22.3 63.4,22.9 64.5,22.9 64.5,23.2 63.4,23.2 63.4,23.8 64.6,23.8 64.6,24.1 63,24.1 63,21.9   64.6,21.9 64.6,22.3 "/>
<rect x="67.6" y="21.9" class="st0" width="0.4" height="2.2"/>
<polygon class="st0" points="71,24.1 69.8,22.6 69.8,24.1 69.5,24.1 69.5,21.9 69.8,21.9 71,23.5 71,21.9 71.4,21.9 71.4,24.1 "/>
<path class="st0" d="M93.1,22.3l-0.4,1h0.9L93.1,22.3z M92.5,23.6l-0.2,0.5h-0.4l1-2.2h0.4l1,2.2h-0.4l-0.2-0.5H92.5z"/>
<path class="st0" d="M106.2,22.3l-0.4,1h0.9L106.2,22.3z M105.6,23.6l-0.2,0.5H105l1-2.2h0.4l1,2.2H107l-0.2-0.5H105.6z"/>
<path class="st1" d="M21.4,23.5l-5.7-7.6l5.6-3.9c0.1-0.1,0.2-0.2,0.2-0.3c0-0.1,0-0.2-0.1-0.3l-7.2-9.7c-0.1-0.2-0.4-0.2-0.6-0.1  L3.1,8.9C3,8.9,2.9,9.1,2.9,9.2v5.4c0,0.2,0.1,0.3,0.2,0.4c0.1,0.1,0.3,0.1,0.4,0l9-6.4l1.7,2.3L3,18.8c-0.1,0.1-0.2,0.2-0.2,0.3  l0,4.6c0,0.2,0.2,0.4,0.4,0.4h3.8c0.2,0,0.4-0.2,0.4-0.4v-2.1l4.3-3l4,5.4c0.1,0.1,0.2,0.2,0.3,0.2H21c0.2,0,0.3-0.1,0.4-0.2  C21.5,23.8,21.5,23.6,21.4,23.5"/>
<path class="st0" d="M33.7,12.1c1.3,0,2.1-0.7,2.1-2c0-1.3-0.8-2-2.1-2h-2.5v3.9H33.7z M33.5,15.3h-2.3v3.9h-4.4V4.8h7  c4,0,6.3,1.8,6.3,5.1c0,2.1-0.9,3.7-2.5,4.6l3,4.7h-5L33.5,15.3z"/>
<polygon class="st0" points="47.2,8.1 47.2,10.4 54.2,10.4 54.2,13.7 47.2,13.7 47.2,15.9 55.2,15.9 55.2,19.2 42.8,19.2 42.8,4.8   55,4.8 55,8.1 "/>
<path class="st0" d="M69.5,6.3l-1.6,3.3C66.3,8.8,64.2,8,62.9,8c-0.7,0-1.2,0.2-1.2,0.8c0,2.1,7.8,0.9,7.8,6c0,3-2.8,4.5-6.1,4.5  c-2.5,0-5.3-0.9-7.1-2.3l1.7-3.2c1.5,1.2,4,2.2,5.5,2.2c0.9,0,1.5-0.3,1.5-1c0-2.2-7.8-0.8-7.8-5.8c0-2.8,2.4-4.5,6.1-4.5  C65.6,4.7,67.9,5.3,69.5,6.3"/>
<path class="st0" d="M82.7,15.9h2.2c2,0,3.4-1.5,3.4-3.8c0-2.3-1.5-3.9-3.6-3.9h-2V15.9z M84.8,4.8c4.8,0,8,2.9,8,7.2  c0,4.3-3.3,7.2-8.2,7.2h-6.4V4.8H84.8z"/>
<path class="st0" d="M74.7,22.3l-0.2,0.3c-0.2-0.2-0.4-0.3-0.6-0.3c-0.5,0-0.8,0.3-0.8,0.8c0,0.4,0.4,0.8,0.8,0.8  c0.2,0,0.5-0.1,0.6-0.3l0.2,0.2c-0.2,0.2-0.6,0.4-0.9,0.4c-0.7,0-1.2-0.5-1.2-1.1c0-0.6,0.5-1.1,1.2-1.1  C74.2,21.9,74.5,22.1,74.7,22.3"/>
<path class="st0" d="M76.1,23c0,0.4,0.4,0.8,0.8,0.8c0.4,0,0.8-0.3,0.8-0.8c0-0.4-0.4-0.8-0.8-0.8C76.5,22.3,76.1,22.6,76.1,23   M78.1,23c0,0.6-0.5,1.1-1.2,1.1s-1.2-0.5-1.2-1.1c0-0.6,0.5-1.1,1.2-1.1S78.1,22.4,78.1,23"/>
<path class="st0" d="M80.3,23.1c0.3,0,0.5-0.1,0.5-0.4c0-0.3-0.2-0.4-0.5-0.4h-0.5v0.9H80.3z M80.4,23.5c0,0-0.1,0-0.1,0h-0.5v0.7  h-0.4v-2.2h0.9c0.6,0,0.9,0.3,0.9,0.7c0,0.3-0.2,0.6-0.5,0.7l0.5,0.7h-0.4L80.4,23.5z"/>
<path class="st0" d="M82.9,23.1h0.5c0.3,0,0.5-0.1,0.5-0.4c0-0.3-0.2-0.4-0.5-0.4h-0.5V23.1z M83.4,21.9c0.6,0,0.9,0.3,0.9,0.7  c0,0.5-0.3,0.8-0.9,0.8h-0.5v0.7h-0.4v-2.2H83.4z"/>
<path class="st0" d="M85.8,23c0,0.4,0.4,0.8,0.8,0.8c0.4,0,0.8-0.3,0.8-0.8c0-0.4-0.4-0.8-0.8-0.8C86.1,22.3,85.8,22.6,85.8,23   M87.8,23c0,0.6-0.5,1.1-1.2,1.1c-0.7,0-1.2-0.5-1.2-1.1c0-0.6,0.5-1.1,1.2-1.1C87.2,21.9,87.8,22.4,87.8,23"/>
<path class="st0" d="M89.9,23.1c0.3,0,0.5-0.1,0.5-0.4c0-0.3-0.2-0.4-0.5-0.4h-0.5v0.9H89.9z M90,23.5c0,0-0.1,0-0.1,0h-0.5v0.7H89  v-2.2h0.9c0.6,0,0.9,0.3,0.9,0.7c0,0.3-0.2,0.6-0.5,0.7l0.5,0.7h-0.4L90,23.5z"/>
<path class="st0" d="M95.8,23.8h0.6c0.4,0,0.8-0.3,0.8-0.8c0-0.4-0.3-0.8-0.8-0.8h-0.5V23.8z M96.3,21.9c0.7,0,1.2,0.5,1.2,1.1  c0,0.6-0.5,1.1-1.2,1.1h-0.9v-2.2H96.3z"/>
<path class="st0" d="M98.9,23c0,0.4,0.4,0.8,0.8,0.8c0.4,0,0.8-0.3,0.8-0.8c0-0.4-0.4-0.8-0.8-0.8C99.2,22.3,98.9,22.6,98.9,23   M100.9,23c0,0.6-0.5,1.1-1.2,1.1s-1.2-0.5-1.2-1.1c0-0.6,0.5-1.1,1.2-1.1S100.9,22.4,100.9,23"/>
<path class="st0" d="M103,23.1c0.3,0,0.5-0.1,0.5-0.4c0-0.3-0.2-0.4-0.5-0.4h-0.5v0.9H103z M103.1,23.5c0,0-0.1,0-0.1,0h-0.5v0.7  h-0.4v-2.2h0.9c0.6,0,0.9,0.3,0.9,0.7c0,0.3-0.2,0.6-0.5,0.7l0.5,0.7h-0.4L103.1,23.5z"/>
<path class="st0" d="M28.8,22.3l-0.2,0.3c-0.2-0.2-0.4-0.3-0.6-0.3c-0.5,0-0.8,0.3-0.8,0.8c0,0.4,0.4,0.8,0.8,0.8  c0.2,0,0.5-0.1,0.6-0.3l0.2,0.2c-0.2,0.2-0.6,0.4-0.9,0.4c-0.7,0-1.2-0.5-1.2-1.1c0-0.6,0.5-1.1,1.2-1.1  C28.3,21.9,28.6,22.1,28.8,22.3"/>
<path class="st0" d="M30.2,23c0,0.4,0.4,0.8,0.8,0.8c0.4,0,0.8-0.3,0.8-0.8c0-0.4-0.4-0.8-0.8-0.8C30.5,22.3,30.2,22.6,30.2,23   M32.2,23c0,0.6-0.5,1.1-1.2,1.1c-0.7,0-1.2-0.5-1.2-1.1c0-0.6,0.5-1.1,1.2-1.1C31.7,21.9,32.2,22.4,32.2,23"/>
<path class="st0" d="M38.4,22.2l-0.2,0.3c-0.2-0.1-0.5-0.2-0.7-0.2c-0.2,0-0.4,0.1-0.4,0.2c0,0.5,1.2,0.2,1.2,1  c0,0.4-0.4,0.6-0.9,0.6c-0.4,0-0.7-0.1-0.9-0.3l0.2-0.3c0.2,0.2,0.5,0.3,0.8,0.3c0.3,0,0.4-0.1,0.4-0.3c0-0.5-1.2-0.2-1.2-1  c0-0.4,0.3-0.6,0.8-0.6C37.9,21.9,38.2,22,38.4,22.2"/>
<path class="st0" d="M43.3,23.1c0.3,0,0.5-0.1,0.5-0.4c0-0.3-0.2-0.4-0.5-0.4h-0.5v0.9H43.3z M43.4,23.5c0,0-0.1,0-0.1,0h-0.5v0.7  h-0.4v-2.2h0.9c0.6,0,0.9,0.3,0.9,0.7c0,0.3-0.2,0.6-0.5,0.7l0.5,0.7h-0.4L43.4,23.5z"/>
<path class="st0" d="M47.5,23.2c0,0.6-0.4,0.9-1,0.9c-0.6,0-1-0.3-1-0.9v-1.3h0.4v1.3c0,0.4,0.2,0.6,0.6,0.6c0.4,0,0.6-0.2,0.6-0.6  v-1.3h0.4V23.2z"/>
<path class="st0" d="M51.7,23c0,0.4,0.4,0.8,0.8,0.8c0.4,0,0.8-0.3,0.8-0.8c0-0.4-0.4-0.8-0.8-0.8C52,22.3,51.7,22.6,51.7,23   M53.7,23c0,0.6-0.5,1.1-1.2,1.1c-0.7,0-1.2-0.5-1.2-1.1c0-0.6,0.5-1.1,1.2-1.1C53.1,21.9,53.7,22.4,53.7,23"/>
<path class="st0" d="M55.8,23.1c0.3,0,0.5-0.1,0.5-0.4c0-0.3-0.2-0.4-0.5-0.4h-0.5v0.9H55.8z M55.9,23.5c0,0-0.1,0-0.1,0h-0.5v0.7  h-0.4v-2.2h0.9c0.6,0,0.9,0.3,0.9,0.7c0,0.3-0.2,0.6-0.5,0.7l0.5,0.7h-0.4L55.9,23.5z"/>
</svg>