<?xml version="1.0" standalone="no"?>
<!DOCTYPE svg PUBLIC "-//W3C//DTD SVG 1.1//EN" "http://www.w3.org/Graphics/SVG/1.1/DTD/svg11.dtd">
<svg xmlns="http://www.w3.org/2000/svg" xmlns:xlink="http://www.w3.org/1999/xlink" version="1.1" id="Layer_1" x="0px" y="0px" width="682.7899780273438" height="200.78500366210938" viewBox="0 0 682.79 200.785" enable-background="new 0 0 682.79 200.785" xml:space="preserve">
<g>
	<g>
		<g>
			<g>
				<g>
					<g>
						<path fill="#FFFFFF" d="M167.648,109.005h-22.789l-5.77,13.092c-0.35,0.686-0.719,1.191-1.085,1.499        c-0.381,0.302-1.042,0.458-2.015,0.458h-12.166c-0.682,0-1.098-0.205-1.246-0.612c-0.129-0.423-0.097-0.899,0.121-1.451        l29.891-64.65c1.032-2.337,2.132-3.852,3.303-4.535c1.172-0.685,2.755-1.072,4.743-1.142h6.073        c1.111,0,2.041,0.06,2.801,0.159c0.754,0.104,1.396,0.369,1.958,0.781c0.548,0.405,0.995,0.991,1.336,1.754        c0.335,0.75,0.62,1.746,0.83,2.984l11.75,64.65c0.071,0.412,0.015,0.866-0.155,1.345c-0.173,0.48-0.639,0.719-1.385,0.719        h-11.458c-0.751,0-1.351-0.086-1.798-0.255c-0.445-0.176-0.736-0.634-0.873-1.396L167.648,109.005z M150.123,96.212h15.666        l-1.851-13.088l-1.547-14.748h-0.722l-5.876,14.748L150.123,96.212z"/>
						<path fill="#FFFFFF" d="M246.214,64.82c-0.273,0.306-0.79,0.462-1.543,0.462h-18.154l-8.034,56.608        c-0.136,0.893-0.357,1.482-0.682,1.752c-0.303,0.278-0.933,0.412-1.902,0.412h-10.724c-0.821,0-1.411-0.156-1.756-0.458        c-0.341-0.308-0.441-0.884-0.301-1.706l8.041-56.608h-17.742c-0.749,0-1.229-0.156-1.435-0.462        c-0.209-0.312-0.286-0.848-0.209-1.601l1.337-9.178c0.137-0.893,0.34-1.473,0.613-1.747c0.275-0.274,0.799-0.423,1.553-0.423        h51.254c0.75,0,1.249,0.148,1.483,0.423c0.243,0.274,0.294,0.854,0.152,1.747l-1.329,9.178        C246.697,63.972,246.484,64.508,246.214,64.82z"/>
						<path fill="#FFFFFF" d="M271.726,125.192c-2.203,0-4.474-0.129-6.803-0.369c-2.342-0.242-4.645-0.611-6.913-1.129        c-2.266-0.512-4.472-1.188-6.597-2.005c-2.139-0.836-4.059-1.825-5.77-2.999c-0.49-0.344-0.771-0.718-0.839-1.129        c-0.062-0.412,0.142-1.072,0.626-1.957l3.923-8.254c0.418-0.827,0.821-1.302,1.229-1.439c0.408-0.137,0.994-0.035,1.752,0.303        c1.248,0.561,2.627,1.127,4.18,1.704c1.547,0.581,3.155,1.105,4.842,1.549c1.686,0.445,3.408,0.821,5.16,1.133        c1.758,0.313,3.496,0.466,5.209,0.466c2.337,0,4.247-0.242,5.717-0.725c1.479-0.48,2.666-1.096,3.559-1.856        c0.888-0.753,1.515-1.61,1.855-2.573c0.348-0.959,0.512-1.93,0.512-2.889c0-1.854-0.754-3.389-2.262-4.596        c-1.516-1.193-4.055-2.662-7.634-4.378c-3.29-1.589-6.241-3.157-8.819-4.741c-2.573-1.583-4.754-3.252-6.541-5.001        c-1.787-1.751-3.162-3.653-4.124-5.718c-0.97-2.068-1.448-4.34-1.448-6.812c0-6.391,2.255-11.506,6.76-15.36        c4.505-3.849,10.949-5.775,19.33-5.775c3.787,0,7.604,0.377,11.449,1.128c3.846,0.762,7.151,1.893,9.908,3.404        c0.748,0.344,1.189,0.742,1.328,1.19c0.142,0.443,0.035,1.213-0.302,2.319l-2.485,7.734c-0.406,1.027-0.855,1.594-1.34,1.691        c-0.479,0.104-1.094,0.058-1.858-0.153c-2.941-0.955-5.923-1.753-8.915-2.366c-2.99-0.618-5.824-0.926-8.502-0.926        c-3.236,0-5.523,0.649-6.869,1.959c-1.323,1.302-2.005,2.817-2.005,4.535c0,1.378,0.812,2.718,2.423,4.021        c1.613,1.312,4.35,2.818,8.196,4.532c2.956,1.31,5.714,2.67,8.259,4.073c2.543,1.413,4.739,3.015,6.596,4.798        c1.854,1.779,3.293,3.813,4.33,6.08c1.027,2.278,1.549,4.889,1.549,7.836c0,3.922-0.729,7.309-2.164,10.156        c-1.451,2.861-3.457,5.215-6.033,7.073c-2.584,1.849-5.623,3.233-9.131,4.12C279.56,124.741,275.788,125.192,271.726,125.192z        "/>
						<path fill="#FFFFFF" d="M322.956,123.642c-0.304,0.278-0.942,0.412-1.913,0.412h-10.608c-0.832,0-1.437-0.156-1.804-0.458        c-0.389-0.308-0.506-0.884-0.366-1.706l9.593-67.849c0.138-0.823,0.403-1.388,0.819-1.695        c0.423-0.321,1.039-0.474,1.854-0.474h10.619c0.973,0,1.589,0.148,1.858,0.423c0.27,0.274,0.343,0.854,0.207,1.747        l-9.589,67.849C323.495,122.782,323.265,123.372,322.956,123.642z"/>
						<path fill="#FFFFFF" d="M366.652,124.054c-1.787,0-3.027-0.412-3.713-1.237c-0.682-0.826-0.887-2.134-0.608-3.92l8.548-61.865        c0.345-1.786,0.946-3.112,1.804-3.967c0.861-0.857,2.214-1.295,4.074-1.295l23.199-0.106c2.615,0,5.034,0.309,7.267,0.939        c2.236,0.615,4.176,1.563,5.824,2.833c1.657,1.272,2.935,2.919,3.871,4.948c0.93,2.028,1.391,4.455,1.391,7.267        c0,1.583-0.227,3.187-0.674,4.8s-1.123,3.156-2.061,4.641c-0.924,1.478-2.116,2.831-3.561,4.068        c-1.434,1.236-3.188,2.236-5.247,2.988l-0.104,0.625c3.564,1.369,6.115,3.449,7.624,6.24c1.511,2.779,2.269,5.856,2.269,9.222        c0,3.782-0.654,7.157-1.959,10.106c-1.307,2.958-3.127,5.451-5.457,7.479c-2.338,2.03-5.113,3.576-8.311,4.637        c-3.189,1.068-6.688,1.598-10.452,1.598H366.652z M375.717,88.795l-3.704,26.603h18.764c3.295,0,5.997-0.548,8.096-1.654        c2.097-1.102,3.764-2.438,4.998-4.02c1.24-1.588,2.08-3.285,2.531-5.108c0.449-1.815,0.67-3.413,0.67-4.794        c0-3.303-1.017-5.961-3.047-7.986c-2.025-2.033-5.205-3.04-9.531-3.04H375.717z M376.857,80.752h18.26        c1.087,0,2.381-0.171,3.863-0.523c1.478-0.341,2.898-0.956,4.276-1.857c1.378-0.89,2.536-2.125,3.51-3.703        c0.954-1.581,1.431-3.611,1.431-6.083c0-2.48-0.854-4.475-2.566-5.981c-1.722-1.517-4.128-2.268-7.219-2.268h-18.67        L376.857,80.752z"/>
						<path fill="#FFFFFF" d="M460.354,51.663c2.9,0,5.486,0.438,7.789,1.295c2.303,0.86,4.264,2.063,5.883,3.616        c1.613,1.537,2.826,3.392,3.658,5.558c0.822,2.164,1.234,4.528,1.234,7.067c0,5.435-1.336,9.831-4.016,13.196        c-2.684,3.368-6.02,5.774-10.01,7.22v0.407c2.621,0.901,4.393,2.221,5.318,3.975c0.936,1.756,1.568,3.9,1.91,6.447        l2.672,21.756c0.068,0.342,0.041,0.744-0.102,1.187c-0.135,0.447-0.584,0.667-1.342,0.667h-6.6        c-0.334,0-0.684-0.068-1.021-0.205c-0.344-0.136-0.59-0.514-0.723-1.137l-2.379-19.689c-0.275-1.991-0.752-3.641-1.439-4.955        c-0.689-1.302-1.555-2.334-2.629-3.088c-1.068-0.764-2.287-1.274-3.656-1.549c-1.369-0.27-2.896-0.407-4.541-0.407h-14.338        l-4.125,29.073c-0.139,0.822-0.357,1.361-0.662,1.598c-0.311,0.242-0.852,0.359-1.604,0.359h-5.264        c-0.684,0-1.191-0.117-1.537-0.359c-0.352-0.236-0.453-0.775-0.307-1.598l9.166-65.169c0.281-1.786,0.85-3.11,1.711-3.97        c0.852-0.856,2.217-1.295,4.072-1.295H460.354z M440.777,60.438l-3.51,24.335h16.703c2.604,0,4.893-0.402,6.848-1.189        c1.967-0.785,3.582-1.854,4.854-3.197c1.266-1.338,2.232-2.887,2.885-4.641c0.656-1.754,0.984-3.594,0.984-5.519        c0-1.237-0.188-2.438-0.572-3.604c-0.375-1.171-0.994-2.214-1.852-3.149c-0.863-0.922-2.029-1.668-3.512-2.213        c-1.473-0.546-3.281-0.823-5.412-0.823H440.777z"/>
						<path fill="#FFFFFF" d="M532.389,124.054c-0.617,0-1.117-0.068-1.498-0.205c-0.377-0.136-0.631-0.581-0.77-1.342        l-2.789-15.156h-28.25l-7.113,15.156c-0.342,0.555-0.67,0.951-0.984,1.188c-0.309,0.242-0.773,0.359-1.387,0.359h-7.328        c-0.682,0-1.076-0.186-1.176-0.561c-0.105-0.378-0.092-0.853,0.049-1.396l32.061-66.303c0.764-1.655,1.498-2.729,2.223-3.243        c0.721-0.526,1.865-0.817,3.453-0.887h2.895c1.777,0,2.947,0.307,3.494,0.887c0.557,0.578,1.006,1.668,1.346,3.243        l13.203,66.303c0.137,0.479,0.102,0.922-0.105,1.345c-0.213,0.407-0.625,0.612-1.24,0.612H532.389z M522.18,77.548        L519.602,62.5h-0.518l-6.598,14.537l-9.902,21.966h23.205L522.18,77.548z"/>
						<path fill="#FFFFFF" d="M577.812,59.201c-4.396,0-7.771,0.975-10.105,2.931c-2.334,1.961-3.508,4.528-3.508,7.682        c0,2.621,1.396,4.869,4.18,6.759c2.773,1.893,6.779,4.009,12.01,6.343c2.471,1.095,4.84,2.271,7.123,3.504        c2.268,1.234,4.258,2.664,5.967,4.285c1.721,1.611,3.1,3.463,4.131,5.556c1.031,2.097,1.555,4.601,1.555,7.479        c0,3.785-0.73,7.041-2.176,9.748c-1.436,2.711-3.385,4.927-5.826,6.653c-2.438,1.714-5.279,2.993-8.506,3.813        c-3.242,0.818-6.627,1.238-10.201,1.238c-3.926,0-8.168-0.369-12.742-1.086c-4.572-0.72-8.707-2.116-12.42-4.173        c-0.623-0.411-0.697-1.095-0.201-2.063l2.672-5.469c0.344-0.754,0.922-0.955,1.754-0.614c3.227,1.647,6.604,2.862,10.113,3.66        c3.484,0.79,6.795,1.181,9.893,1.181c5.77,0,10.141-1.005,13.088-3.037c2.955-2.031,4.438-5.143,4.438-9.338        c0-1.646-0.311-3.085-0.926-4.328c-0.611-1.237-1.533-2.368-2.734-3.406c-1.199-1.021-2.717-2.011-4.535-2.935        c-1.826-0.934-3.943-1.94-6.338-3.04c-3.514-1.648-6.555-3.215-9.127-4.693c-2.586-1.48-4.695-3.006-6.342-4.584        c-1.645-1.587-2.891-3.285-3.711-5.109c-0.828-1.818-1.242-3.871-1.242-6.133c0-6.255,2.18-11.054,6.545-14.389        c4.371-3.325,10.33-4.994,17.893-4.994c3.303,0,6.785,0.338,10.469,1.021c3.684,0.699,6.965,1.722,9.836,3.099        c0.348,0.138,0.588,0.331,0.73,0.568c0.143,0.242,0.143,0.634,0,1.188l-2.064,5.773c-0.277,0.484-0.514,0.753-0.717,0.825        c-0.207,0.067-0.451,0.04-0.727-0.099c-3.232-1.386-6.4-2.356-9.541-2.947C583.393,59.489,580.49,59.201,577.812,59.201z"/>
						<path fill="#FFFFFF" d="M618.045,53.83c0.145-0.822,0.393-1.348,0.77-1.588c0.375-0.245,0.949-0.371,1.707-0.371h5.053        c0.754,0,1.264,0.126,1.535,0.371c0.281,0.24,0.344,0.766,0.207,1.588l-9.686,68.267c-0.064,0.822-0.254,1.361-0.574,1.598        c-0.301,0.242-0.834,0.359-1.586,0.359h-5.055c-0.754,0-1.311-0.117-1.656-0.359c-0.34-0.236-0.441-0.775-0.307-1.598        L618.045,53.83z"/>
						<path fill="#FFFFFF" d="M641.658,53.63c0.135-0.825,0.4-1.356,0.777-1.605c0.383-0.237,0.912-0.361,1.594-0.361h4.961        c0.75,0,1.285,0.124,1.59,0.361c0.314,0.249,0.398,0.781,0.26,1.605l-7.529,53.314c-0.82,5.631,1.553,8.453,7.121,8.453        h27.842c0.613,0,0.996,0.154,1.131,0.46c0.137,0.308,0.17,0.737,0.1,1.292l-0.715,5.15c-0.148,0.557-0.301,0.988-0.477,1.296        c-0.164,0.302-0.566,0.458-1.182,0.458h-28.557c-3.234,0-5.859-0.445-7.891-1.342c-2.029-0.887-3.576-2.1-4.635-3.6        c-1.068-1.52-1.74-3.305-2.012-5.369c-0.281-2.057-0.252-4.258,0.107-6.595L641.658,53.63z"/>
					</g>
				</g>
				<g>
					<g>
						<g>
							<path fill="#FFFFFF" d="M134.102,148.035c1.78,0,3.168,0.523,4.162,1.568c0.993,1.046,1.49,2.438,1.49,4.177         c0,0.746-0.108,1.533-0.326,2.36c-0.217,0.828-0.61,1.595-1.18,2.298c-0.57,0.704-1.336,1.289-2.298,1.755         c-0.963,0.466-2.189,0.699-3.681,0.699h-5.807l-1.212,8.446c-0.021,0.207-0.067,0.342-0.14,0.404         c-0.072,0.062-0.212,0.093-0.419,0.093h-1.242c-0.166,0-0.295-0.031-0.388-0.093c-0.094-0.062-0.12-0.197-0.078-0.404         l2.795-19.844c0.062-0.476,0.212-0.839,0.45-1.087s0.626-0.373,1.165-0.373H134.102z M127.985,150.271l-1.211,8.478h5.435         c1.614,0,2.872-0.424,3.772-1.272c0.901-0.849,1.352-2.039,1.352-3.571c0-0.436-0.062-0.87-0.187-1.305         s-0.337-0.823-0.637-1.165c-0.301-0.341-0.704-0.621-1.211-0.838c-0.508-0.218-1.145-0.326-1.91-0.326H127.985z"/>
							<path fill="#FFFFFF" d="M154.738,169.696c-0.072,0.093-0.213,0.14-0.419,0.14h-8.54c-0.974,0-1.76-0.135-2.36-0.403         c-0.601-0.27-1.051-0.637-1.351-1.103c-0.301-0.466-0.481-1.01-0.544-1.631c-0.062-0.621-0.042-1.283,0.062-1.987         l1.584-11.49c0.103-0.704,0.264-1.371,0.481-2.003c0.217-0.632,0.527-1.181,0.932-1.646c0.403-0.466,0.921-0.833,1.553-1.102         c0.631-0.27,1.423-0.404,2.375-0.404h8.198c0.207,0,0.337,0.047,0.389,0.14c0.052,0.094,0.067,0.233,0.047,0.42l-0.187,1.087         c-0.021,0.207-0.062,0.347-0.124,0.419c-0.062,0.072-0.197,0.108-0.404,0.108h-7.888c-0.932,0-1.63,0.218-2.096,0.652         s-0.762,1.098-0.886,1.987l-0.621,4.348h9.782c0.187,0,0.306,0.036,0.357,0.108c0.052,0.073,0.066,0.213,0.047,0.42         l-0.155,1.024c-0.021,0.166-0.067,0.295-0.14,0.389c-0.073,0.093-0.202,0.14-0.389,0.14h-9.782l-0.808,5.714         c-0.104,0.787,0,1.418,0.311,1.895s0.952,0.714,1.926,0.714h8.54c0.206,0,0.331,0.042,0.372,0.124         c0.042,0.083,0.042,0.229,0,0.436l-0.124,1.087C154.857,169.463,154.81,169.603,154.738,169.696z"/>
							<path fill="#FFFFFF" d="M166.616,149.898c-1.346,0-2.442,0.306-3.291,0.916c-0.85,0.611-1.273,1.486-1.273,2.625         c0,0.477,0.113,0.896,0.342,1.257c0.228,0.363,0.559,0.704,0.993,1.025s0.963,0.626,1.584,0.916s1.314,0.601,2.081,0.932         c0.827,0.331,1.594,0.688,2.298,1.071c0.703,0.384,1.314,0.818,1.832,1.305s0.921,1.04,1.211,1.661s0.435,1.346,0.435,2.174         c0,1.098-0.207,2.05-0.621,2.857c-0.414,0.807-0.978,1.475-1.692,2.003c-0.714,0.527-1.563,0.916-2.546,1.164         c-0.983,0.249-2.045,0.373-3.184,0.373c-0.538,0-1.123-0.021-1.754-0.062c-0.632-0.042-1.273-0.124-1.926-0.248         s-1.3-0.29-1.941-0.497s-1.231-0.466-1.77-0.776c-0.187-0.104-0.207-0.29-0.062-0.559l0.684-1.367         c0.104-0.165,0.259-0.217,0.466-0.155c0.932,0.519,1.945,0.896,3.043,1.134c1.098,0.238,2.112,0.357,3.044,0.357         c0.849,0,1.625-0.078,2.329-0.233c0.703-0.155,1.304-0.393,1.801-0.714s0.88-0.74,1.149-1.258         c0.269-0.518,0.403-1.139,0.403-1.863c0-0.538-0.099-1.01-0.295-1.413c-0.197-0.403-0.492-0.771-0.885-1.103         c-0.394-0.331-0.881-0.646-1.46-0.947c-0.58-0.3-1.253-0.615-2.019-0.947c-1.035-0.455-1.937-0.89-2.702-1.304         s-1.397-0.854-1.894-1.32c-0.497-0.466-0.87-0.973-1.118-1.521c-0.249-0.548-0.373-1.175-0.373-1.879         c0-1.842,0.657-3.266,1.973-4.27c1.314-1.004,3.09-1.507,5.325-1.507c0.932,0,1.946,0.099,3.044,0.295         c1.097,0.197,2.091,0.523,2.98,0.979c0.104,0.042,0.171,0.094,0.202,0.155c0.031,0.062,0.025,0.166-0.016,0.311l-0.527,1.46         c-0.083,0.104-0.15,0.166-0.202,0.187s-0.119,0.01-0.202-0.031c-0.974-0.435-1.931-0.74-2.872-0.916         C168.267,149.987,167.403,149.898,166.616,149.898z"/>
							<path fill="#FFFFFF" d="M186.007,147.756c2.501,0,4.392,0.729,5.674,2.189c1.28,1.46,1.922,3.524,1.922,6.195         c0,1.926-0.228,3.737-0.683,5.435c-0.455,1.698-1.126,3.184-2.015,4.456c-0.89,1.273-1.995,2.283-3.317,3.028         c-1.323,0.745-2.842,1.118-4.558,1.118c-2.501,0-4.376-0.72-5.627-2.158c-1.25-1.439-1.875-3.432-1.875-5.979         c0-2.256,0.269-4.27,0.806-6.04s1.281-3.266,2.232-4.487c0.95-1.222,2.062-2.153,3.332-2.795         C183.17,148.077,184.54,147.756,186.007,147.756z M185.87,149.93c-1.387,0-2.588,0.337-3.602,1.01         c-1.015,0.673-1.848,1.563-2.5,2.67c-0.652,1.108-1.134,2.371-1.444,3.789s-0.466,2.873-0.466,4.363         c0,0.932,0.093,1.781,0.279,2.547s0.492,1.428,0.916,1.987c0.425,0.559,0.979,0.988,1.662,1.288         c0.683,0.301,1.521,0.451,2.515,0.451c1.387,0,2.599-0.331,3.634-0.994c1.035-0.662,1.884-1.548,2.547-2.655         c0.662-1.107,1.159-2.37,1.49-3.789c0.331-1.417,0.497-2.882,0.497-4.394c0-0.89-0.099-1.719-0.295-2.484         c-0.197-0.766-0.513-1.429-0.947-1.987c-0.435-0.56-1.005-0.999-1.708-1.32C187.744,150.091,186.884,149.93,185.87,149.93z          M182.019,173.842c-0.228,0-0.331-0.143-0.311-0.428l0.187-1.193c0.021-0.265,0.165-0.397,0.435-0.397h2.764         c0.911,0,1.734,0.056,2.47,0.169c0.734,0.111,1.387,0.259,1.956,0.443c0.569,0.183,1.066,0.382,1.49,0.596         c0.425,0.215,0.771,0.413,1.041,0.597c0.124,0.102,0.196,0.179,0.217,0.23c0.021,0.051-0.011,0.139-0.093,0.263l-0.715,1.181         c-0.083,0.124-0.17,0.181-0.264,0.171c-0.093-0.011-0.223-0.067-0.388-0.171c-0.726-0.415-1.605-0.761-2.64-1.04         c-1.036-0.28-2.185-0.42-3.447-0.42H182.019z"/>
							<path fill="#FFFFFF" d="M198.757,148.595c0.021-0.207,0.083-0.342,0.187-0.404c0.104-0.062,0.238-0.093,0.404-0.093h1.335         c0.207,0,0.342,0.031,0.403,0.093c0.062,0.062,0.083,0.197,0.062,0.404l-1.677,11.77c-0.187,1.346-0.274,2.505-0.264,3.479         c0.01,0.973,0.212,1.77,0.605,2.391c0.393,0.621,1.009,1.082,1.848,1.382c0.838,0.301,2.003,0.45,3.493,0.45         c0.352,0,0.947-0.025,1.786-0.077c0.838-0.052,1.733-0.171,2.686-0.357l2.702-19.036c0.021-0.207,0.078-0.342,0.171-0.404         c0.093-0.062,0.223-0.093,0.388-0.093h1.367c0.206,0,0.331,0.031,0.372,0.093c0.041,0.062,0.041,0.197,0,0.404l-2.64,18.819         c-0.104,0.642-0.321,1.164-0.652,1.567c-0.331,0.404-0.88,0.679-1.646,0.823c-0.767,0.145-1.62,0.249-2.562,0.311         c-0.942,0.062-1.734,0.094-2.376,0.094c-1.719,0-3.127-0.155-4.224-0.466c-1.098-0.311-1.94-0.839-2.531-1.584         c-0.59-0.745-0.947-1.734-1.071-2.966s-0.062-2.779,0.187-4.643L198.757,148.595z"/>
							<path fill="#FFFFFF" d="M219.594,148.595c0.042-0.207,0.109-0.342,0.202-0.404c0.094-0.062,0.233-0.093,0.419-0.093h1.305         c0.187,0,0.311,0.031,0.373,0.093c0.062,0.062,0.082,0.197,0.062,0.404l-2.95,20.744c-0.021,0.207-0.067,0.342-0.14,0.404         c-0.072,0.062-0.202,0.093-0.388,0.093h-1.305c-0.187,0-0.326-0.031-0.419-0.093c-0.094-0.062-0.12-0.197-0.078-0.404         L219.594,148.595z"/>
							<path fill="#FFFFFF" d="M232.668,149.898c-1.346,0-2.442,0.306-3.291,0.916c-0.85,0.611-1.273,1.486-1.273,2.625         c0,0.477,0.113,0.896,0.342,1.257c0.228,0.363,0.559,0.704,0.993,1.025s0.963,0.626,1.584,0.916s1.314,0.601,2.081,0.932         c0.827,0.331,1.594,0.688,2.298,1.071c0.703,0.384,1.314,0.818,1.832,1.305s0.921,1.04,1.211,1.661s0.435,1.346,0.435,2.174         c0,1.098-0.207,2.05-0.621,2.857c-0.414,0.807-0.978,1.475-1.692,2.003c-0.714,0.527-1.563,0.916-2.546,1.164         c-0.983,0.249-2.045,0.373-3.184,0.373c-0.538,0-1.123-0.021-1.754-0.062c-0.632-0.042-1.273-0.124-1.926-0.248         s-1.3-0.29-1.941-0.497s-1.231-0.466-1.77-0.776c-0.187-0.104-0.207-0.29-0.062-0.559l0.684-1.367         c0.104-0.165,0.259-0.217,0.466-0.155c0.932,0.519,1.945,0.896,3.043,1.134c1.098,0.238,2.112,0.357,3.044,0.357         c0.849,0,1.625-0.078,2.329-0.233c0.703-0.155,1.304-0.393,1.801-0.714s0.88-0.74,1.149-1.258         c0.269-0.518,0.403-1.139,0.403-1.863c0-0.538-0.099-1.01-0.295-1.413c-0.197-0.403-0.492-0.771-0.885-1.103         c-0.394-0.331-0.881-0.646-1.46-0.947c-0.58-0.3-1.253-0.615-2.019-0.947c-1.035-0.455-1.937-0.89-2.702-1.304         s-1.397-0.854-1.894-1.32c-0.497-0.466-0.87-0.973-1.118-1.521c-0.249-0.548-0.373-1.175-0.373-1.879         c0-1.842,0.657-3.266,1.973-4.27c1.314-1.004,3.09-1.507,5.325-1.507c0.932,0,1.946,0.099,3.044,0.295         c1.097,0.197,2.091,0.523,2.98,0.979c0.104,0.042,0.171,0.094,0.202,0.155c0.031,0.062,0.025,0.166-0.016,0.311l-0.527,1.46         c-0.083,0.104-0.15,0.166-0.202,0.187s-0.119,0.01-0.202-0.031c-0.974-0.435-1.931-0.74-2.872-0.916         C234.32,149.987,233.456,149.898,232.668,149.898z"/>
							<path fill="#FFFFFF" d="M254.562,169.836c-0.166,0-0.295-0.016-0.388-0.047s-0.161-0.149-0.202-0.356l-0.869-4.783h-8.975         l-2.268,4.783c-0.083,0.145-0.16,0.248-0.232,0.311c-0.073,0.062-0.192,0.093-0.357,0.093h-1.863         c-0.165,0-0.264-0.052-0.295-0.155s-0.025-0.218,0.016-0.342l9.813-20.217c0.228-0.435,0.429-0.719,0.605-0.854         c0.176-0.135,0.471-0.212,0.885-0.233h0.745c0.477,0,0.776,0.078,0.9,0.233c0.125,0.155,0.238,0.44,0.342,0.854l4.037,20.217         c0.041,0.104,0.036,0.213-0.016,0.326c-0.052,0.114-0.16,0.171-0.326,0.171H254.562z M251.457,155.488l-0.838-4.72h-0.124         l-2.144,4.596l-3.291,7.143h7.639L251.457,155.488z"/>
							<path fill="#FFFFFF" d="M281.191,169.696c-0.072,0.093-0.213,0.14-0.419,0.14h-8.54c-0.974,0-1.76-0.135-2.36-0.403         c-0.601-0.27-1.051-0.637-1.351-1.103c-0.301-0.466-0.481-1.01-0.544-1.631c-0.062-0.621-0.042-1.283,0.062-1.987         l1.584-11.49c0.103-0.704,0.264-1.371,0.481-2.003c0.217-0.632,0.527-1.181,0.932-1.646c0.403-0.466,0.921-0.833,1.553-1.102         c0.631-0.27,1.423-0.404,2.375-0.404h8.198c0.207,0,0.337,0.047,0.389,0.14c0.052,0.094,0.067,0.233,0.047,0.42l-0.187,1.087         c-0.021,0.207-0.062,0.347-0.124,0.419c-0.062,0.072-0.197,0.108-0.404,0.108h-7.888c-0.932,0-1.63,0.218-2.096,0.652         s-0.762,1.098-0.886,1.987l-0.621,4.348h9.782c0.187,0,0.306,0.036,0.357,0.108c0.052,0.073,0.066,0.213,0.047,0.42         l-0.155,1.024c-0.021,0.166-0.067,0.295-0.14,0.389c-0.073,0.093-0.202,0.14-0.389,0.14h-9.782l-0.808,5.714         c-0.104,0.787,0,1.418,0.311,1.895s0.952,0.714,1.926,0.714h8.54c0.206,0,0.331,0.042,0.372,0.124         c0.042,0.083,0.042,0.229,0,0.436l-0.124,1.087C281.31,169.463,281.263,169.603,281.191,169.696z"/>
							<path fill="#FFFFFF" d="M303.566,147.787c0.372,0,0.792,0.016,1.258,0.047c0.466,0.03,0.946,0.093,1.443,0.186         c0.497,0.094,0.999,0.229,1.507,0.404c0.507,0.176,0.998,0.398,1.475,0.668c0.104,0.041,0.16,0.104,0.171,0.186         c0.01,0.083-0.036,0.229-0.14,0.436l-0.497,1.117c-0.124,0.249-0.301,0.311-0.528,0.187         c-0.745-0.414-1.532-0.688-2.359-0.823c-0.829-0.134-1.574-0.201-2.236-0.201c-1.49,0-2.743,0.331-3.758,0.993         c-1.015,0.663-1.832,1.532-2.453,2.609c-0.621,1.076-1.071,2.303-1.351,3.68s-0.42,2.79-0.42,4.239         c0,0.973,0.094,1.858,0.28,2.654c0.186,0.798,0.501,1.48,0.947,2.05c0.444,0.57,1.029,1.01,1.754,1.32         s1.625,0.466,2.702,0.466c0.89,0,1.796-0.119,2.717-0.357c0.921-0.237,1.775-0.532,2.562-0.885         c0.206-0.104,0.342-0.124,0.403-0.062c0.062,0.062,0.124,0.146,0.187,0.249l0.528,1.087c0.103,0.207,0.124,0.356,0.062,0.45         c-0.062,0.093-0.155,0.171-0.279,0.232c-1.16,0.601-2.34,0.994-3.54,1.181c-1.201,0.186-2.268,0.279-3.199,0.279         c-2.505,0-4.394-0.704-5.667-2.112c-1.273-1.407-1.91-3.591-1.91-6.552c0-2.174,0.259-4.109,0.776-5.808         c0.518-1.697,1.231-3.131,2.143-4.301s2.004-2.065,3.276-2.687C300.693,148.098,302.075,147.787,303.566,147.787z"/>
							<path fill="#FFFFFF" d="M321.435,147.756c2.501,0,4.392,0.729,5.674,2.189c1.28,1.46,1.922,3.524,1.922,6.195         c0,1.926-0.228,3.737-0.683,5.435c-0.455,1.698-1.126,3.184-2.015,4.456c-0.89,1.273-1.995,2.283-3.317,3.028         c-1.323,0.745-2.842,1.118-4.558,1.118c-2.501,0-4.376-0.72-5.627-2.158c-1.25-1.439-1.875-3.432-1.875-5.979         c0-2.256,0.273-4.27,0.821-6.04s1.292-3.266,2.232-4.487s2.046-2.153,3.316-2.795         C318.598,148.077,319.967,147.756,321.435,147.756z M321.329,149.898c-1.408,0-2.613,0.342-3.617,1.025         c-1.005,0.683-1.838,1.579-2.5,2.686c-0.663,1.108-1.149,2.371-1.46,3.789s-0.466,2.873-0.466,4.363         c0,0.932,0.093,1.781,0.279,2.547s0.492,1.423,0.916,1.972c0.425,0.549,0.983,0.979,1.678,1.289         c0.693,0.311,1.537,0.466,2.53,0.466c1.387,0,2.594-0.331,3.618-0.994c1.024-0.662,1.868-1.548,2.531-2.655         c0.662-1.107,1.159-2.37,1.49-3.789c0.331-1.417,0.497-2.882,0.497-4.394c0-0.89-0.094-1.719-0.279-2.484         c-0.187-0.766-0.497-1.434-0.932-2.003c-0.436-0.569-1.005-1.015-1.708-1.336         C323.203,150.06,322.343,149.898,321.329,149.898z"/>
							<path fill="#FFFFFF" d="M347.88,148.563c0.042-0.207,0.109-0.342,0.202-0.403c0.094-0.062,0.243-0.094,0.45-0.094h1.211         c0.187,0,0.315,0.031,0.389,0.094c0.072,0.062,0.088,0.196,0.047,0.403l-2.795,19.906c-0.062,0.435-0.192,0.771-0.389,1.009         c-0.197,0.238-0.543,0.357-1.04,0.357h-0.684c-0.394,0-0.667-0.088-0.822-0.264s-0.316-0.471-0.481-0.886l-6.181-13.881         l-1.553-3.634h-0.093l-2.547,18.167c-0.041,0.207-0.098,0.342-0.17,0.404c-0.073,0.062-0.213,0.093-0.42,0.093h-1.211         c-0.166,0-0.295-0.031-0.388-0.093c-0.094-0.062-0.12-0.197-0.078-0.404l2.764-19.906c0.062-0.455,0.202-0.797,0.42-1.024         c0.217-0.228,0.574-0.342,1.071-0.342h0.651c0.394,0,0.663,0.083,0.808,0.249c0.145,0.165,0.311,0.455,0.497,0.869         l5.808,13.136l1.894,4.441h0.094L347.88,148.563z"/>
							<path fill="#FFFFFF" d="M360.426,149.898c-1.346,0-2.442,0.306-3.291,0.916c-0.85,0.611-1.273,1.486-1.273,2.625         c0,0.477,0.113,0.896,0.342,1.257c0.228,0.363,0.559,0.704,0.993,1.025s0.963,0.626,1.584,0.916s1.314,0.601,2.081,0.932         c0.827,0.331,1.594,0.688,2.298,1.071c0.703,0.384,1.314,0.818,1.832,1.305s0.921,1.04,1.211,1.661s0.435,1.346,0.435,2.174         c0,1.098-0.207,2.05-0.621,2.857c-0.414,0.807-0.978,1.475-1.692,2.003c-0.714,0.527-1.563,0.916-2.546,1.164         c-0.983,0.249-2.045,0.373-3.184,0.373c-0.538,0-1.123-0.021-1.754-0.062c-0.632-0.042-1.273-0.124-1.926-0.248         s-1.3-0.29-1.941-0.497s-1.231-0.466-1.77-0.776c-0.187-0.104-0.207-0.29-0.062-0.559l0.684-1.367         c0.104-0.165,0.259-0.217,0.466-0.155c0.932,0.519,1.945,0.896,3.043,1.134c1.098,0.238,2.112,0.357,3.044,0.357         c0.849,0,1.625-0.078,2.329-0.233c0.703-0.155,1.304-0.393,1.801-0.714s0.88-0.74,1.149-1.258         c0.269-0.518,0.403-1.139,0.403-1.863c0-0.538-0.099-1.01-0.295-1.413c-0.197-0.403-0.492-0.771-0.885-1.103         c-0.394-0.331-0.881-0.646-1.46-0.947c-0.58-0.3-1.253-0.615-2.019-0.947c-1.035-0.455-1.937-0.89-2.702-1.304         s-1.397-0.854-1.894-1.32c-0.497-0.466-0.87-0.973-1.118-1.521c-0.249-0.548-0.373-1.175-0.373-1.879         c0-1.842,0.657-3.266,1.973-4.27c1.314-1.004,3.09-1.507,5.325-1.507c0.932,0,1.946,0.099,3.044,0.295         c1.097,0.197,2.091,0.523,2.98,0.979c0.104,0.042,0.171,0.094,0.202,0.155c0.031,0.062,0.025,0.166-0.016,0.311l-0.527,1.46         c-0.083,0.104-0.15,0.166-0.202,0.187s-0.119,0.01-0.202-0.031c-0.974-0.435-1.931-0.74-2.872-0.916         C362.078,149.987,361.213,149.898,360.426,149.898z"/>
							<path fill="#FFFFFF" d="M371.606,148.595c0.021-0.207,0.083-0.342,0.187-0.404c0.104-0.062,0.238-0.093,0.404-0.093h1.335         c0.207,0,0.342,0.031,0.403,0.093c0.062,0.062,0.083,0.197,0.062,0.404l-1.677,11.77c-0.187,1.346-0.274,2.505-0.264,3.479         c0.01,0.973,0.212,1.77,0.605,2.391c0.393,0.621,1.009,1.082,1.848,1.382c0.838,0.301,2.003,0.45,3.493,0.45         c0.352,0,0.947-0.025,1.786-0.077c0.838-0.052,1.733-0.171,2.686-0.357l2.702-19.036c0.021-0.207,0.078-0.342,0.171-0.404         c0.093-0.062,0.223-0.093,0.388-0.093h1.367c0.206,0,0.331,0.031,0.372,0.093c0.041,0.062,0.041,0.197,0,0.404l-2.64,18.819         c-0.104,0.642-0.321,1.164-0.652,1.567c-0.331,0.404-0.88,0.679-1.646,0.823c-0.767,0.145-1.62,0.249-2.562,0.311         c-0.942,0.062-1.734,0.094-2.376,0.094c-1.719,0-3.127-0.155-4.224-0.466c-1.098-0.311-1.94-0.839-2.531-1.584         c-0.59-0.745-0.947-1.734-1.071-2.966s-0.062-2.779,0.187-4.643L371.606,148.595z"/>
							<path fill="#FFFFFF" d="M391.977,148.563c0.042-0.228,0.114-0.373,0.218-0.435c0.104-0.062,0.237-0.094,0.403-0.094h1.242         c0.207,0,0.347,0.031,0.42,0.094c0.072,0.062,0.088,0.207,0.046,0.435l-2.298,16.272c-0.124,0.932,0,1.631,0.373,2.097         c0.372,0.466,1.035,0.698,1.987,0.698h8.385c0.165,0,0.269,0.036,0.311,0.108c0.041,0.073,0.052,0.182,0.031,0.326         l-0.187,1.305c-0.042,0.166-0.083,0.285-0.124,0.357c-0.042,0.072-0.146,0.108-0.311,0.108h-8.571         c-0.932,0-1.692-0.129-2.282-0.389c-0.59-0.258-1.041-0.61-1.352-1.056c-0.311-0.444-0.507-0.967-0.59-1.568         c-0.083-0.6-0.072-1.252,0.031-1.956L391.977,148.563z"/>
							<path fill="#FFFFFF" d="M410.518,150.209h-5.994c-0.166,0-0.27-0.025-0.311-0.077c-0.042-0.052-0.052-0.16-0.031-0.326         l0.187-1.273c0.041-0.165,0.088-0.279,0.14-0.342c0.052-0.062,0.16-0.093,0.326-0.093h14.627         c0.269,0,0.373,0.146,0.311,0.435l-0.187,1.273c-0.021,0.166-0.057,0.274-0.108,0.326s-0.161,0.077-0.326,0.077h-6.242         l-2.701,19.13c-0.021,0.207-0.067,0.342-0.14,0.404c-0.073,0.062-0.202,0.093-0.389,0.093h-1.335         c-0.187,0-0.326-0.031-0.42-0.093c-0.093-0.062-0.129-0.197-0.108-0.404L410.518,150.209z"/>
							<path fill="#FFFFFF" d="M430.002,147.756c2.5,0,4.391,0.729,5.674,2.189c1.279,1.46,1.922,3.524,1.922,6.195         c0,1.926-0.229,3.737-0.684,5.435c-0.455,1.698-1.125,3.184-2.014,4.456c-0.891,1.273-1.996,2.283-3.318,3.028         s-2.842,1.118-4.557,1.118c-2.502,0-4.377-0.72-5.627-2.158c-1.25-1.439-1.875-3.432-1.875-5.979         c0-2.256,0.273-4.27,0.821-6.04s1.292-3.266,2.232-4.487c0.941-1.222,2.047-2.153,3.316-2.795         C427.164,148.077,428.533,147.756,430.002,147.756z M429.895,149.898c-1.408,0-2.613,0.342-3.617,1.025         c-1.004,0.683-1.838,1.579-2.5,2.686c-0.662,1.108-1.148,2.371-1.459,3.789s-0.466,2.873-0.466,4.363         c0,0.932,0.093,1.781,0.279,2.547c0.188,0.766,0.492,1.423,0.916,1.972c0.426,0.549,0.984,0.979,1.678,1.289         s1.537,0.466,2.531,0.466c1.387,0,2.594-0.331,3.617-0.994c1.025-0.662,1.869-1.548,2.531-2.655s1.16-2.37,1.49-3.789         c0.332-1.417,0.498-2.882,0.498-4.394c0-0.89-0.094-1.719-0.279-2.484c-0.188-0.766-0.498-1.434-0.932-2.003         c-0.436-0.569-1.006-1.015-1.709-1.336C431.77,150.06,430.91,149.898,429.895,149.898z"/>
							<path fill="#FFFFFF" d="M451.105,148.035c0.869,0,1.641,0.13,2.314,0.389c0.672,0.259,1.242,0.616,1.707,1.071         c0.467,0.456,0.824,1.004,1.072,1.646c0.248,0.643,0.373,1.336,0.373,2.081c0,1.615-0.41,2.95-1.227,4.006         c-0.818,1.056-1.85,1.791-3.092,2.205v0.124c0.787,0.27,1.326,0.679,1.615,1.227c0.291,0.549,0.486,1.217,0.59,2.003         l0.871,6.553c0.02,0.104,0.01,0.213-0.031,0.326c-0.043,0.114-0.156,0.171-0.342,0.171h-1.678         c-0.082,0-0.17-0.021-0.264-0.062c-0.094-0.041-0.16-0.145-0.201-0.311l-0.746-5.993c-0.082-0.642-0.232-1.165-0.449-1.568         c-0.219-0.403-0.492-0.725-0.824-0.963c-0.332-0.237-0.709-0.403-1.133-0.497c-0.426-0.093-0.885-0.14-1.383-0.14h-4.75         l-1.273,9.037c-0.021,0.207-0.074,0.342-0.156,0.404c-0.082,0.062-0.229,0.093-0.434,0.093h-1.305         c-0.166,0-0.295-0.031-0.389-0.093c-0.094-0.062-0.119-0.197-0.078-0.404l2.795-19.844c0.062-0.476,0.213-0.839,0.451-1.087         s0.625-0.373,1.164-0.373H451.105z M444.988,150.271l-1.119,7.919h5.373c0.809,0,1.518-0.119,2.127-0.357         c0.611-0.237,1.123-0.569,1.537-0.993c0.414-0.425,0.73-0.927,0.947-1.507c0.219-0.579,0.326-1.2,0.326-1.863         c0-0.869-0.279-1.619-0.838-2.251s-1.48-0.947-2.764-0.947H444.988z"/>
							<path fill="#FFFFFF" d="M461.85,148.595c0.043-0.207,0.109-0.342,0.203-0.404c0.094-0.062,0.232-0.093,0.418-0.093h1.305         c0.188,0,0.311,0.031,0.373,0.093c0.062,0.062,0.082,0.197,0.062,0.404l-2.951,20.744c-0.02,0.207-0.066,0.342-0.139,0.404         c-0.072,0.062-0.203,0.093-0.389,0.093h-1.305c-0.186,0-0.326-0.031-0.418-0.093c-0.094-0.062-0.121-0.197-0.078-0.404         L461.85,148.595z"/>
							<path fill="#FFFFFF" d="M479.893,169.836c-0.166,0-0.295-0.016-0.387-0.047c-0.094-0.031-0.162-0.149-0.203-0.356         l-0.869-4.783h-8.975l-2.268,4.783c-0.082,0.145-0.16,0.248-0.232,0.311c-0.072,0.062-0.191,0.093-0.357,0.093h-1.863         c-0.164,0-0.264-0.052-0.295-0.155s-0.025-0.218,0.016-0.342l9.814-20.217c0.227-0.435,0.428-0.719,0.605-0.854         c0.176-0.135,0.471-0.212,0.885-0.233h0.744c0.477,0,0.777,0.078,0.9,0.233c0.125,0.155,0.238,0.44,0.342,0.854l4.037,20.217         c0.041,0.104,0.037,0.213-0.016,0.326c-0.051,0.114-0.16,0.171-0.326,0.171H479.893z M476.787,155.488l-0.838-4.72h-0.123         l-2.145,4.596l-3.291,7.143h7.639L476.787,155.488z"/>
							<path fill="#FFFFFF" d="M506.32,169.836c-0.166,0-0.295-0.016-0.389-0.047c-0.092-0.031-0.16-0.149-0.201-0.356l-0.869-4.783         h-8.975l-2.268,4.783c-0.084,0.145-0.16,0.248-0.232,0.311c-0.074,0.062-0.193,0.093-0.357,0.093h-1.863         c-0.166,0-0.264-0.052-0.295-0.155s-0.025-0.218,0.016-0.342l9.812-20.217c0.229-0.435,0.43-0.719,0.605-0.854         s0.471-0.212,0.885-0.233h0.746c0.477,0,0.775,0.078,0.9,0.233s0.238,0.44,0.342,0.854l4.037,20.217         c0.041,0.104,0.035,0.213-0.016,0.326c-0.053,0.114-0.16,0.171-0.326,0.171H506.32z M503.215,155.488l-0.838-4.72h-0.125         l-2.143,4.596l-3.291,7.143h7.639L503.215,155.488z"/>
							<path fill="#FFFFFF" d="M525.389,159.091c0.02-0.206,0.082-0.342,0.186-0.403c0.104-0.062,0.238-0.094,0.404-0.094h1.242         c0.207,0,0.346,0.031,0.42,0.094c0.072,0.062,0.086,0.197,0.045,0.403l-1.18,8.695c-0.062,0.415-0.27,0.735-0.621,0.963         c-0.58,0.311-1.186,0.564-1.816,0.761c-0.631,0.197-1.242,0.342-1.832,0.435c-0.59,0.094-1.139,0.155-1.646,0.187         s-0.926,0.047-1.258,0.047c-2.588,0-4.539-0.704-5.854-2.112c-1.314-1.407-1.973-3.591-1.973-6.552         c0-2.174,0.27-4.109,0.809-5.808c0.537-1.697,1.283-3.131,2.236-4.301c0.951-1.17,2.074-2.065,3.369-2.687         c1.293-0.621,2.686-0.932,4.176-0.932c0.373,0,0.793,0.016,1.258,0.047c0.467,0.03,0.947,0.093,1.445,0.186         c0.496,0.094,0.998,0.229,1.506,0.404c0.506,0.176,0.998,0.398,1.475,0.668c0.104,0.041,0.16,0.104,0.172,0.186         c0.01,0.083-0.037,0.229-0.141,0.436l-0.496,1.117c-0.125,0.249-0.301,0.311-0.529,0.187         c-0.744-0.414-1.531-0.688-2.359-0.823c-0.828-0.134-1.574-0.201-2.236-0.201c-1.49,0-2.76,0.331-3.805,0.993         c-1.045,0.663-1.898,1.532-2.561,2.609c-0.664,1.076-1.145,2.303-1.445,3.68s-0.449,2.79-0.449,4.239         c0,0.973,0.092,1.858,0.279,2.654c0.186,0.798,0.496,1.48,0.932,2.05c0.434,0.57,1.014,1.01,1.738,1.32         s1.635,0.466,2.732,0.466c0.229,0,0.514-0.011,0.855-0.031s0.719-0.062,1.133-0.124c0.414-0.062,0.848-0.155,1.305-0.279         c0.455-0.125,0.9-0.28,1.334-0.466L525.389,159.091z"/>
							<path fill="#FFFFFF" d="M541.568,148.035c0.869,0,1.641,0.13,2.312,0.389c0.674,0.259,1.242,0.616,1.709,1.071         c0.465,0.456,0.822,1.004,1.07,1.646c0.248,0.643,0.373,1.336,0.373,2.081c0,1.615-0.408,2.95-1.227,4.006         s-1.848,1.791-3.09,2.205v0.124c0.787,0.27,1.324,0.679,1.615,1.227c0.289,0.549,0.486,1.217,0.59,2.003l0.869,6.553         c0.021,0.104,0.01,0.213-0.031,0.326c-0.041,0.114-0.154,0.171-0.342,0.171h-1.676c-0.084,0-0.172-0.021-0.264-0.062         c-0.094-0.041-0.162-0.145-0.203-0.311l-0.744-5.993c-0.084-0.642-0.234-1.165-0.451-1.568s-0.492-0.725-0.822-0.963         c-0.332-0.237-0.711-0.403-1.135-0.497c-0.424-0.093-0.885-0.14-1.381-0.14h-4.752l-1.273,9.037         c-0.021,0.207-0.072,0.342-0.154,0.404c-0.084,0.062-0.229,0.093-0.436,0.093h-1.305c-0.166,0-0.295-0.031-0.387-0.093         c-0.094-0.062-0.121-0.197-0.078-0.404l2.795-19.844c0.062-0.476,0.211-0.839,0.449-1.087s0.627-0.373,1.166-0.373H541.568z          M535.449,150.271l-1.117,7.919h5.373c0.807,0,1.516-0.119,2.127-0.357c0.609-0.237,1.123-0.569,1.537-0.993         c0.414-0.425,0.73-0.927,0.947-1.507c0.217-0.579,0.326-1.2,0.326-1.863c0-0.869-0.279-1.619-0.84-2.251         c-0.559-0.632-1.48-0.947-2.764-0.947H535.449z"/>
							<path fill="#FFFFFF" d="M560.059,147.756c2.5,0,4.391,0.729,5.674,2.189c1.279,1.46,1.922,3.524,1.922,6.195         c0,1.926-0.229,3.737-0.684,5.435c-0.455,1.698-1.125,3.184-2.014,4.456c-0.891,1.273-1.996,2.283-3.318,3.028         s-2.842,1.118-4.557,1.118c-2.502,0-4.377-0.72-5.627-2.158c-1.25-1.439-1.875-3.432-1.875-5.979         c0-2.256,0.273-4.27,0.82-6.04c0.549-1.771,1.293-3.266,2.232-4.487c0.941-1.222,2.047-2.153,3.316-2.795         C557.221,148.077,558.59,147.756,560.059,147.756z M559.951,149.898c-1.408,0-2.613,0.342-3.617,1.025         c-1.004,0.683-1.838,1.579-2.5,2.686c-0.662,1.108-1.148,2.371-1.459,3.789s-0.467,2.873-0.467,4.363         c0,0.932,0.094,1.781,0.279,2.547c0.188,0.766,0.492,1.423,0.916,1.972c0.426,0.549,0.984,0.979,1.678,1.289         s1.537,0.466,2.531,0.466c1.387,0,2.594-0.331,3.617-0.994c1.025-0.662,1.869-1.548,2.531-2.655s1.16-2.37,1.49-3.789         c0.332-1.417,0.498-2.882,0.498-4.394c0-0.89-0.094-1.719-0.279-2.484c-0.188-0.766-0.498-1.434-0.932-2.003         c-0.436-0.569-1.006-1.015-1.709-1.336C561.826,150.06,560.967,149.898,559.951,149.898z"/>
							<path fill="#FFFFFF" d="M586.502,148.563c0.043-0.207,0.109-0.342,0.203-0.403c0.094-0.062,0.242-0.094,0.449-0.094h1.211         c0.188,0,0.316,0.031,0.389,0.094c0.072,0.062,0.088,0.196,0.047,0.403l-2.795,19.906c-0.062,0.435-0.191,0.771-0.389,1.009         c-0.197,0.238-0.543,0.357-1.039,0.357h-0.684c-0.395,0-0.668-0.088-0.822-0.264c-0.156-0.176-0.316-0.471-0.482-0.886         l-6.18-13.881l-1.553-3.634h-0.094l-2.547,18.167c-0.041,0.207-0.098,0.342-0.17,0.404c-0.072,0.062-0.213,0.093-0.42,0.093         h-1.211c-0.166,0-0.295-0.031-0.387-0.093c-0.094-0.062-0.121-0.197-0.078-0.404l2.764-19.906         c0.062-0.455,0.201-0.797,0.42-1.024c0.217-0.228,0.574-0.342,1.07-0.342h0.652c0.393,0,0.662,0.083,0.807,0.249         c0.145,0.165,0.311,0.455,0.498,0.869l5.807,13.136l1.895,4.441h0.094L586.502,148.563z"/>
							<path fill="#FFFFFF" d="M601.516,147.756c2.502,0,4.393,0.729,5.674,2.189s1.922,3.524,1.922,6.195         c0,1.926-0.227,3.737-0.682,5.435c-0.455,1.698-1.127,3.184-2.016,4.456c-0.889,1.273-1.994,2.283-3.316,3.028         c-1.324,0.745-2.842,1.118-4.559,1.118c-2.5,0-4.375-0.72-5.627-2.158c-1.25-1.439-1.875-3.432-1.875-5.979         c0-2.256,0.273-4.27,0.822-6.04c0.547-1.771,1.291-3.266,2.232-4.487c0.939-1.222,2.045-2.153,3.316-2.795         S600.049,147.756,601.516,147.756z M601.41,149.898c-1.408,0-2.613,0.342-3.617,1.025c-1.006,0.683-1.838,1.579-2.5,2.686         c-0.664,1.108-1.15,2.371-1.461,3.789s-0.465,2.873-0.465,4.363c0,0.932,0.092,1.781,0.279,2.547         c0.186,0.766,0.492,1.423,0.916,1.972s0.982,0.979,1.678,1.289c0.693,0.311,1.537,0.466,2.529,0.466         c1.387,0,2.594-0.331,3.619-0.994c1.023-0.662,1.867-1.548,2.531-2.655c0.662-1.107,1.158-2.37,1.49-3.789         c0.33-1.417,0.496-2.882,0.496-4.394c0-0.89-0.094-1.719-0.279-2.484s-0.496-1.434-0.932-2.003s-1.004-1.015-1.707-1.336         C603.283,150.06,602.424,149.898,601.41,149.898z M606.223,146.7c-0.082,0.104-0.16,0.146-0.232,0.124         c-0.072-0.021-0.17-0.062-0.295-0.124l-3.541-2.205l-4.098,2.205c-0.207,0.104-0.363,0.083-0.467-0.062l-0.373-0.496         c-0.123-0.146-0.104-0.29,0.062-0.436l4.037-3.012c0.455-0.331,0.85-0.497,1.18-0.497c0.166,0,0.338,0.026,0.514,0.077         c0.176,0.053,0.377,0.192,0.605,0.42l3.074,3.074c0.145,0.124,0.135,0.29-0.031,0.497L606.223,146.7z"/>
							<path fill="#FFFFFF" d="M621.75,165.054c0.104-0.187,0.264-0.486,0.48-0.9c0.219-0.414,0.451-0.859,0.699-1.336         c0.248-0.476,0.486-0.921,0.715-1.335c0.227-0.414,0.393-0.715,0.496-0.9c0.229-0.436,0.518-0.979,0.869-1.631         c0.354-0.652,0.73-1.346,1.135-2.081c0.404-0.734,0.816-1.495,1.242-2.282c0.424-0.786,0.822-1.526,1.195-2.221         c0.373-0.693,0.715-1.319,1.025-1.878c0.311-0.56,0.547-0.994,0.713-1.305c0.229-0.476,0.455-0.781,0.684-0.916         s0.527-0.202,0.9-0.202h0.809c0.518,0,0.842,0.124,0.979,0.373c0.133,0.248,0.17,0.58,0.107,0.993l-2.826,20         c-0.02,0.166-0.066,0.274-0.139,0.325c-0.074,0.053-0.172,0.078-0.295,0.078h-1.43c-0.166,0-0.279-0.025-0.342-0.078         c-0.061-0.051-0.082-0.159-0.061-0.325l2.422-17.174h-0.125l-2.049,3.82c-0.207,0.352-0.457,0.802-0.746,1.351         s-0.611,1.139-0.963,1.77c-0.352,0.632-0.709,1.289-1.07,1.973c-0.363,0.683-0.721,1.341-1.072,1.972         c-0.352,0.632-0.678,1.217-0.979,1.755c-0.299,0.538-0.543,0.983-0.729,1.335c-0.207,0.415-0.41,0.699-0.605,0.854         c-0.197,0.155-0.492,0.232-0.887,0.232h-0.838c-0.414,0-0.699-0.077-0.854-0.232c-0.156-0.155-0.275-0.439-0.357-0.854         c-0.145-0.538-0.342-1.273-0.59-2.205s-0.512-1.904-0.791-2.919c-0.281-1.014-0.549-1.987-0.809-2.919         s-0.461-1.666-0.605-2.205l-0.9-3.478h-0.156l-2.391,16.925c-0.021,0.166-0.062,0.274-0.123,0.325         c-0.062,0.053-0.178,0.078-0.342,0.078h-1.398c-0.145,0-0.248-0.025-0.311-0.078c-0.062-0.051-0.082-0.159-0.062-0.325         l2.826-20c0.062-0.413,0.191-0.745,0.389-0.993c0.197-0.249,0.543-0.373,1.041-0.373h0.621c0.393,0,0.678,0.067,0.854,0.202         s0.314,0.44,0.42,0.916c0.02,0.104,0.102,0.419,0.248,0.947c0.145,0.527,0.314,1.17,0.512,1.925         c0.197,0.757,0.408,1.574,0.637,2.454s0.445,1.724,0.652,2.53c0.207,0.808,0.393,1.522,0.559,2.144s0.279,1.045,0.342,1.272         c0.062,0.187,0.15,0.497,0.264,0.932c0.113,0.436,0.229,0.891,0.342,1.367s0.223,0.932,0.326,1.366s0.176,0.745,0.217,0.932         H621.75z"/>
							<path fill="#FFFFFF" d="M638.893,148.595c0.041-0.207,0.109-0.342,0.201-0.404c0.094-0.062,0.234-0.093,0.42-0.093h1.305         c0.186,0,0.311,0.031,0.373,0.093c0.061,0.062,0.082,0.197,0.061,0.404l-2.949,20.744c-0.021,0.207-0.068,0.342-0.141,0.404         c-0.072,0.062-0.201,0.093-0.387,0.093h-1.305c-0.188,0-0.326-0.031-0.42-0.093c-0.094-0.062-0.119-0.197-0.078-0.404         L638.893,148.595z"/>
							<path fill="#FFFFFF" d="M654.264,147.787c0.373,0,0.793,0.016,1.258,0.047c0.467,0.03,0.947,0.093,1.443,0.186         c0.498,0.094,1,0.229,1.508,0.404c0.506,0.176,0.998,0.398,1.475,0.668c0.104,0.041,0.16,0.104,0.17,0.186         c0.01,0.083-0.035,0.229-0.139,0.436l-0.498,1.117c-0.123,0.249-0.301,0.311-0.527,0.187         c-0.746-0.414-1.533-0.688-2.359-0.823c-0.83-0.134-1.574-0.201-2.236-0.201c-1.49,0-2.744,0.331-3.758,0.993         c-1.016,0.663-1.832,1.532-2.453,2.609c-0.621,1.076-1.072,2.303-1.352,3.68s-0.42,2.79-0.42,4.239         c0,0.973,0.094,1.858,0.281,2.654c0.186,0.798,0.5,1.48,0.947,2.05c0.443,0.57,1.029,1.01,1.754,1.32         s1.625,0.466,2.701,0.466c0.891,0,1.797-0.119,2.717-0.357c0.922-0.237,1.775-0.532,2.562-0.885         c0.207-0.104,0.342-0.124,0.404-0.062c0.062,0.062,0.123,0.146,0.186,0.249l0.529,1.087c0.102,0.207,0.123,0.356,0.061,0.45         c-0.061,0.093-0.154,0.171-0.279,0.232c-1.16,0.601-2.34,0.994-3.539,1.181c-1.201,0.186-2.268,0.279-3.199,0.279         c-2.506,0-4.395-0.704-5.668-2.112c-1.273-1.407-1.91-3.591-1.91-6.552c0-2.174,0.26-4.109,0.777-5.808         c0.518-1.697,1.23-3.131,2.143-4.301c0.91-1.17,2.004-2.065,3.275-2.687C651.391,148.098,652.773,147.787,654.264,147.787z"/>
							<path fill="#FFFFFF" d="M674.635,169.836c-0.166,0-0.295-0.016-0.387-0.047c-0.094-0.031-0.162-0.149-0.203-0.356         l-0.869-4.783h-8.975l-2.268,4.783c-0.082,0.145-0.16,0.248-0.232,0.311c-0.072,0.062-0.191,0.093-0.357,0.093h-1.863         c-0.164,0-0.264-0.052-0.295-0.155s-0.025-0.218,0.016-0.342l9.814-20.217c0.227-0.435,0.428-0.719,0.605-0.854         c0.176-0.135,0.471-0.212,0.885-0.233h0.744c0.477,0,0.777,0.078,0.9,0.233c0.125,0.155,0.238,0.44,0.342,0.854l4.037,20.217         c0.041,0.104,0.037,0.213-0.016,0.326c-0.051,0.114-0.16,0.171-0.326,0.171H674.635z M671.529,155.488l-0.838-4.72h-0.123         l-2.145,4.596l-3.291,7.143h7.639L671.529,155.488z"/>
						</g>
					</g>
				</g>
			</g>
		</g>
	</g>
	<g>
		<path fill="#009877" d="M58.903,96.897c-46.149,56.867-7.613,100.227-7.613,100.227c-2.987-37.107,22.495-40.127,40.686-67.34    c18.202-27.209-1.674-47.227-1.674-47.227s1.894,10.911-22.564,32.733c-24.604,21.974-21.612,39.995-20.766,43.378    c-11.805-37.578,43.51-56.938,41.225-94.034c-2.077-33.75-21.027-46.987-21.027-46.987S89.689,58.965,58.903,96.897z"/>
		<path fill="#009877" d="M43.873,103.749C90.015,46.882,51.48,3.519,51.48,3.519c2.995,37.109-22.493,40.13-40.686,67.343    c-18.205,27.211,1.677,47.229,1.677,47.229s-1.895-10.914,22.565-32.739c24.603-21.971,21.608-39.993,20.765-43.377    c11.804,37.578-43.513,56.939-41.223,94.033c2.075,33.75,21.022,46.988,21.022,46.988S13.083,141.678,43.873,103.749z"/>
	</g>
</g>
</svg>