<?xml version="1.0" standalone="no"?>
<!DOCTYPE svg PUBLIC "-//W3C//DTD SVG 1.1//EN" "http://www.w3.org/Graphics/SVG/1.1/DTD/svg11.dtd">
<svg xmlns="http://www.w3.org/2000/svg" xmlns:xlink="http://www.w3.org/1999/xlink" version="1.1" id="Layer_1" x="0px" y="0px" width="400" height="73.33300018310547" viewBox="0 0 400 73.333" enable-background="new 0 0 400 73.333" xml:space="preserve">
<g>
	<path fill="#FFFFFF" d="M195.174,28.507h-6.858v6.222h-2.63v4.731h2.63v10.176c0,2.582,0.636,4.441,1.913,5.578   c1.272,1.139,3.305,1.709,6.102,1.709c1.218,0,2.24-0.055,3.077-0.166c0.836-0.112,1.634-0.264,2.376-0.457v-4.79h-0.588   c-0.235,0.131-0.65,0.272-1.246,0.431c-0.595,0.152-1.078,0.23-1.446,0.23c-0.889,0-1.564-0.133-2.024-0.397   c-0.464-0.264-0.79-0.622-0.971-1.079c-0.194-0.45-0.302-0.958-0.317-1.529c-0.011-0.568-0.018-1.229-0.018-1.996v-7.71h6.61   v-4.731h-6.61V28.507z"/>
	<path fill="#FFFFFF" d="M174.221,34.046c-3.713,0-6.596,1.058-8.662,3.184c-2.068,2.117-3.098,4.956-3.098,8.508   c0,3.635,1.109,6.433,3.326,8.398c2.213,1.964,5.396,2.944,9.551,2.944c1.137,0,2.103-0.053,2.891-0.164   c0.789-0.106,1.558-0.26,2.302-0.457c0.808-0.192,1.449-0.385,1.914-0.57c0.461-0.186,0.975-0.39,1.539-0.608v-5.604h-0.723   c-0.302,0.216-0.689,0.468-1.172,0.752c-0.473,0.286-0.996,0.549-1.557,0.795c-0.637,0.285-1.345,0.515-2.114,0.687   c-0.771,0.18-1.56,0.266-2.356,0.266c-0.929,0-1.786-0.085-2.57-0.266c-0.782-0.172-1.472-0.457-2.054-0.858   c-0.601-0.405-1.088-0.941-1.45-1.622c-0.368-0.675-0.583-1.524-0.648-2.529h15.039v-2.441c0-3.347-0.849-5.922-2.549-7.722   C180.128,34.948,177.593,34.046,174.221,34.046z M169.317,42.814c0.082-1.357,0.497-2.434,1.246-3.221   c0.755-0.789,1.792-1.186,3.13-1.186c1.306,0,2.276,0.377,2.91,1.124c0.635,0.756,0.97,1.847,1.012,3.283H169.317z"/>
	<polygon fill="#FFFFFF" points="147.998,47.214 141.648,27.636 134.043,27.636 144.078,56.498 151.724,56.498 161.757,27.636    154.352,27.636  "/>
	<path fill="#FFFFFF" d="M222.95,65.884c4.458,1.743,9.224,2.436,14.28,1.986c6.62-14.454,13.028-23.851,27.895-33.165   C242.895,40.727,229.568,51.572,222.95,65.884z"/>
	<path fill="#FFFFFF" d="M211.06,58.1c2.8,2.67,5.774,4.826,8.908,6.438c6.82-14.459,23.142-24.864,45.157-29.833   C240.437,35.454,223.551,44.726,211.06,58.1z"/>
	<polygon fill="#FFFFFF" points="290.225,31.629 294.889,31.629 300.768,24.015 294.277,24.015  "/>
	<rect x="341.18" y="26.337" fill="#FFFFFF" width="7.253" height="5.292"/>
	<path fill="#FFFFFF" d="M364.088,34.133c-1.608,0-3.153,0.216-4.638,0.646c-1.477,0.437-2.77,1.105-3.867,2.006   c-1.139,0.946-2.038,2.151-2.71,3.606c-0.661,1.462-0.996,3.235-0.996,5.313c0,1.939,0.307,3.625,0.924,5.05   c0.608,1.429,1.466,2.612,2.562,3.559c1.117,0.947,2.421,1.642,3.935,2.091c1.504,0.457,3.171,0.683,4.989,0.683   c0.95,0,1.719-0.047,2.3-0.147c0.583-0.098,1.207-0.237,1.874-0.415c0.534-0.139,1.059-0.324,1.571-0.542   c0.524-0.218,0.97-0.418,1.366-0.583v-5.817h-0.884c-0.233,0.233-0.515,0.497-0.843,0.787c-0.326,0.293-0.715,0.571-1.177,0.841   c-0.47,0.271-1.029,0.509-1.68,0.702c-0.656,0.192-1.41,0.289-2.273,0.289c-1.7,0-3.064-0.534-4.088-1.606   c-1.024-1.072-1.539-2.705-1.539-4.89c0-2.044,0.482-3.666,1.438-4.875c0.964-1.213,2.315-1.814,4.067-1.814   c0.77,0,1.472,0.093,2.103,0.285c0.622,0.184,1.183,0.416,1.685,0.687c0.469,0.26,0.904,0.542,1.298,0.854   c0.401,0.312,0.736,0.597,1.01,0.854h0.884v-5.817c-1.229-0.608-2.45-1.05-3.667-1.329   C366.514,34.27,365.305,34.133,364.088,34.133z"/>
	<path fill="#FFFFFF" d="M278.866,50.164c-0.563,0.397-1.173,0.716-1.833,0.947c-0.665,0.233-1.232,0.352-1.722,0.352   c-0.782,0-1.391-0.119-1.834-0.352c-0.436-0.23-0.761-0.575-0.97-1.024c-0.221-0.49-0.36-1.094-0.42-1.8   c-0.061-0.715-0.089-1.627-0.089-2.753V34.734h-6.862c-0.005-0.009-0.008-0.02-0.012-0.029   c-14.133,10.087-17.771,18.225-23.474,32.493c12.957-2.763,20.995-13.798,23.452-22.809v4.517c0,2.741,0.608,4.792,1.832,6.155   c1.226,1.363,2.926,2.045,5.105,2.045c1.371,0,2.554-0.258,3.554-0.768c0.989-0.509,2.08-1.257,3.271-2.238v2.404h6.854V34.734   h-6.854V50.164z"/>
	<path fill="#FFFFFF" d="M391.013,35.984c-1.731-1.25-4.497-1.873-8.287-1.873c-1.54,0-3.071,0.133-4.591,0.397   c-1.513,0.266-2.607,0.497-3.29,0.689v5.253h0.586c1.033-0.45,2.096-0.821,3.179-1.113c1.084-0.29,2.036-0.435,2.844-0.435   c1.785,0,3.131,0.23,4.026,0.687c0.897,0.457,1.346,1.292,1.346,2.489v0.119c-1.987,0.13-3.839,0.311-5.566,0.542   c-1.727,0.23-3.21,0.649-4.456,1.243c-1.224,0.575-2.165,1.372-2.814,2.363c-0.656,0.994-0.984,2.304-0.984,3.917   c0,1.966,0.643,3.592,1.934,4.883c1.282,1.291,2.901,1.94,4.85,1.94c1.044,0,1.86-0.08,2.44-0.232   c0.583-0.159,1.181-0.383,1.796-0.681c0.628-0.312,1.121-0.623,1.498-0.927c0.375-0.312,0.795-0.662,1.264-1.053v2.31h6.823v-14.81   C393.608,39.134,392.745,37.228,391.013,35.984z M386.785,50.825c-0.508,0.49-1.078,0.868-1.706,1.139   c-0.628,0.271-1.244,0.411-1.845,0.411c-1.086,0-1.901-0.192-2.455-0.57c-0.558-0.382-0.838-1.084-0.838-2.104   c0-0.701,0.166-1.257,0.502-1.681c0.336-0.416,0.795-0.735,1.397-0.938c0.696-0.245,1.397-0.412,2.119-0.497   c0.717-0.079,1.661-0.178,2.825-0.297V50.825z"/>
	<rect x="341.375" y="34.734" fill="#FFFFFF" width="6.855" height="21.771"/>
	<path fill="#FFFFFF" d="M334.457,36.07c-0.562-0.649-1.25-1.131-2.061-1.454c-0.809-0.327-1.726-0.483-2.743-0.483   c-1.204,0-2.387,0.323-3.56,0.979c-1.17,0.654-2.416,1.588-3.732,2.798c-0.535-1.25-1.316-2.196-2.335-2.827   c-1.017-0.635-2.201-0.95-3.547-0.95c-1.243,0-2.36,0.263-3.35,0.793c-0.997,0.528-2.054,1.27-3.177,2.208v-2.401h-6.859v21.771   h6.859V41.074c0.509-0.344,1.028-0.648,1.571-0.908c0.535-0.256,1.084-0.39,1.646-0.39c0.729,0,1.304,0.107,1.712,0.319   c0.415,0.216,0.716,0.553,0.916,1.017c0.195,0.463,0.317,1.072,0.362,1.814c0.046,0.742,0.067,1.647,0.067,2.706v10.873h6.896   V41.074c0.602-0.411,1.159-0.734,1.667-0.96c0.508-0.226,1.03-0.337,1.55-0.337c0.743,0,1.326,0.107,1.732,0.319   c0.418,0.216,0.717,0.553,0.911,1.017c0.199,0.463,0.314,1.065,0.354,1.807c0.042,0.735,0.062,1.64,0.062,2.713v10.873h6.898   V42.329c0-1.547-0.154-2.805-0.461-3.77C335.526,37.598,335.065,36.766,334.457,36.07z"/>
	<rect x="290.98" y="34.734" fill="#FFFFFF" width="6.857" height="21.771"/>
	<path fill="#FFFFFF" d="M58.042,46.087H63.9v2.674c-1.144,0.681-2.167,1.163-3.057,1.446c-0.884,0.286-1.824,0.43-2.801,0.43   c-2.065,0-3.677-0.661-4.829-1.975c-1.155-1.313-1.735-3.507-1.735-6.576c0-2.893,0.575-4.999,1.716-6.34   c1.144-1.333,2.675-2.002,4.596-2.002c1.289,0,2.351,0.286,3.179,0.854c0.832,0.569,1.425,1.386,1.776,2.456l8.45-1.505   c-0.512-1.837-1.286-3.349-2.311-4.538c-1.029-1.193-2.317-2.073-3.87-2.642c-1.556-0.568-3.901-0.852-7.033-0.852   c-3.248,0-5.837,0.455-7.759,1.375c-2.461,1.188-4.332,2.924-5.612,5.208c-1.274,2.292-1.916,4.987-1.916,8.083   c0,2.938,0.59,5.542,1.757,7.812c1.163,2.272,2.807,3.982,4.933,5.125c2.12,1.149,4.861,1.724,8.227,1.724   c2.736,0,5.099-0.316,7.093-0.958c1.996-0.632,4.286-1.842,6.875-3.604V40.189H58.042V46.087z"/>
	<path fill="#FFFFFF" d="M114.7,37.827c-0.778-0.825-1.665-1.441-2.66-1.857c-1.004-0.409-2.114-0.62-3.343-0.62   c-2.508,0-4.581,0.905-6.212,2.715c-1.637,1.802-2.45,4.404-2.45,7.812c0,3.044,0.74,5.633,2.213,7.759   c1.478,2.128,3.618,3.189,6.419,3.189c1.393,0,2.652-0.297,3.788-0.883c0.852-0.457,1.791-1.33,2.827-2.618v3.038h7.37V28H114.7   V37.827z M113.748,49.884c-0.665,0.787-1.503,1.177-2.515,1.177c-0.937,0-1.729-0.39-2.37-1.169   c-0.634-0.78-0.958-2.007-0.958-3.685c0-1.798,0.311-3.071,0.932-3.83c0.62-0.761,1.385-1.144,2.304-1.144   c1.043,0,1.909,0.396,2.589,1.188c0.687,0.794,1.025,1.995,1.025,3.614C114.755,47.811,114.424,49.092,113.748,49.884z"/>
	<path fill="#FFFFFF" d="M207.791,52.228l9.493-8.04l-12.496-0.121l11.701-4.341l-11.701-4.344l12.496-0.121l-9.493-8.04   l11.786,4.115l-6.144-10.766l9.653,7.853l-2.049-12.196l6.355,10.645l2.29-12.152l2.294,12.152l6.353-10.645l-2.048,12.196   l9.65-7.853l-6.14,10.766l11.784-4.115l-9.493,8.04l12.494,0.121l-0.955,0.354c-0.054,0.009-0.104,0.019-0.158,0.028   c0.718-0.111,1.439-0.218,2.173-0.313c-2.064-12.335-12.897-21.747-25.954-21.747c-14.527,0-26.305,11.651-26.305,26.021   c0,6.951,2.761,13.26,7.253,17.928l8.945-9.54L207.791,52.228z"/>
	<path fill="#FFFFFF" d="M87.08,2.557C39.298,2.851,2.719,55.982,2.719,55.982s0,0.011,0,0.028h17.215   c0.006-0.01,0.011-0.019,0.017-0.028c16.82-29.894,42.075-40.932,48.77-44.093c7.303-3.449,27.488-8.824,31.748,0.101   c2.522,5.285-0.32,14.807-2.43,20.43c-0.381-0.822-0.885-1.544-1.525-2.156C94.938,28.753,92.561,28,89.389,28H74.821v28.361h8.803   V45.835h4.795c3.533,0,6.162-0.803,7.885-2.415c1.724-1.611,2.582-3.851,2.582-6.715c0-1.248-0.168-2.362-0.487-3.355   C103.47,24.521,113.551,2.394,87.08,2.557z M89.329,39.212c-0.687,0.589-1.868,0.88-3.558,0.88h-2.148v-6.326h2.497   c1.638,0,2.755,0.309,3.342,0.929c0.595,0.617,0.892,1.375,0.892,2.267C90.354,37.872,90.009,38.625,89.329,39.212z"/>
</g>
</svg>