<?xml version="1.0" standalone="no"?>
<!DOCTYPE svg PUBLIC "-//W3C//DTD SVG 1.1//EN" "http://www.w3.org/Graphics/SVG/1.1/DTD/svg11.dtd">
<svg xmlns="http://www.w3.org/2000/svg" xmlns:xlink="http://www.w3.org/1999/xlink" version="1.1" id="Layer_1" x="0px" y="0px" width="189.90699768066406" height="96.5" viewBox="21.093 0 189.907 96.5" enable-background="new 21.093 0 189.907 96.5" xml:space="preserve">
<g>
	<defs>
		<path id="SVGID_1_" d="M203.863,7.277c-3.792-3.793-9.033-6.14-14.82-6.14c-5.788,0-11.028,2.346-14.821,6.139    s-6.138,9.033-6.138,14.821c0,5.788,2.345,11.028,6.138,14.821c3.793,3.792,9.033,6.139,14.821,6.139    c5.787,0,11.028-2.346,14.82-6.139c3.793-3.793,6.14-9.033,6.14-14.821C210.003,16.31,207.656,11.07,203.863,7.277"/>
	</defs>
	<clipPath id="SVGID_2_">
		<use xlink:href="#SVGID_1_" overflow="visible"/>
	</clipPath>
	<path clip-path="url(#SVGID_2_)" fill="#888546" d="M192.436,44.062c0.121-0.001,0.223-0.004,0.303-0.007   c-1.794-1.695-1.932-3.802-2.072-5.972c-0.102-1.571-0.206-3.175-0.954-4.665c-1.52-2.98-7.966-2.06-10.022-1.766   c-0.244,0.035-0.431,0.062-0.552,0.069c0.226,4.26,1.699,7.056,3.604,8.888c3.151,3.027,7.488,3.43,9.332,3.454L192.436,44.062z"/>
	<path clip-path="url(#SVGID_2_)" fill="#2B3525" d="M166.837,15.584c0.064-2.132,0.556-3.661,0.557-3.665l0.065-0.211l0.106,0.194   c1.123,2.086,3.018,2.679,4.963,3.289c1.412,0.442,2.851,0.893,4.06,1.922c2.499,2.128,0.262,7.903-0.439,9.714   c-0.117,0.302-0.19,0.48-0.189,0.483l0.049,0.164l-0.164-0.048c-3.123-0.918-5.204-2.375-6.57-4.038   c-1.816-2.207-2.371-4.771-2.437-6.917C166.827,16.404,166.827,15.653,166.837,15.584"/>
	<path clip-path="url(#SVGID_2_)" fill="#C3C348" d="M179.106,28.929c-0.522-17.943,16.954-18.036,17.004-18.037l0.223-0.004   l-0.153,0.161c-2.31,2.414-2.271,5.211-2.233,8.094c0.027,2.085,0.055,4.214-0.789,6.288c-1.739,4.213-10.356,3.753-13.117,3.606   c-0.483-0.025-0.778-0.041-0.781-0.039l-0.147,0.12L179.106,28.929z"/>
</g>
<path fill="none" stroke="#AEAF3F" stroke-width="1.4173" stroke-miterlimit="22.9256" d="M203.863,7.277  c-3.792-3.793-9.033-6.14-14.82-6.14c-5.788,0-11.028,2.346-14.821,6.139s-6.138,9.033-6.138,14.821  c0,5.788,2.345,11.028,6.138,14.821c3.793,3.792,9.033,6.139,14.821,6.139c5.787,0,11.028-2.346,14.82-6.139  c3.793-3.793,6.14-9.033,6.14-14.821C210.003,16.31,207.656,11.07,203.863,7.277z"/>
<path fill="#FFFFFF" d="M21.656,61.405V40.531h5.673v20.697c0,1.743,0.413,3.072,1.241,3.988c0.827,0.915,1.994,1.374,3.501,1.374  c1.507,0,2.682-0.459,3.523-1.374c0.843-0.916,1.263-2.245,1.263-3.988V40.531h5.672v20.875c0,3.248-0.916,5.737-2.747,7.467  c-1.832,1.729-4.403,2.593-7.711,2.593c-3.309,0-5.872-0.864-7.689-2.593C22.564,67.143,21.656,64.653,21.656,61.405"/>
<path fill="#FFFFFF" d="M61.717,60.119v-1.684c0-2.187-0.28-3.82-0.842-4.897c-0.562-1.078-1.462-1.618-2.703-1.618  c-1.241,0-2.143,0.54-2.704,1.618c-0.562,1.077-0.842,2.711-0.842,4.897v1.595c0,2.187,0.281,3.834,0.842,4.941  c0.561,1.108,1.462,1.662,2.704,1.662c1.241,0,2.142-0.538,2.703-1.617S61.717,62.305,61.717,60.119 M49.309,47.621h4.432  l0.532,2.88h0.222c0.562-1.122,1.3-1.972,2.216-2.547c0.917-0.576,1.936-0.865,3.058-0.865c2.364,0,4.203,1.013,5.518,3.036  c1.314,2.023,1.972,5.089,1.972,9.196c0,4.048-0.658,7.083-1.972,9.106c-1.315,2.024-3.065,3.037-5.251,3.037  c-1.182,0-2.238-0.259-3.169-0.775s-1.603-1.235-2.017-2.149h-0.222v10.061h-5.318V47.621z"/>
<rect x="72.747" y="64.86" fill="#FFFFFF" width="6.116" height="6.072"/>
<polygon fill="#FFFFFF" points="96.997,40.531 102.67,40.531 102.67,52.851 112.243,52.851 112.243,40.531 117.915,40.531   117.915,70.933 112.243,70.933 112.243,57.902 102.67,57.902 102.67,70.933 96.997,70.933 "/>
<path fill="#FFFFFF" d="M135.419,56.75c0-3.544-0.944-5.317-2.836-5.317c-1.094,0-1.905,0.45-2.437,1.351  c-0.532,0.902-0.844,2.226-0.933,3.967H135.419z M123.631,59.276c0-8.124,2.984-12.188,8.952-12.188c2.836,0,4.949,0.99,6.338,2.97  c1.389,1.979,2.082,5.052,2.082,9.218v1.33H129.17c0.029,2.186,0.317,3.819,0.864,4.897c0.548,1.078,1.455,1.617,2.726,1.617  c0.917,0,1.64-0.393,2.173-1.175c0.531-0.783,0.797-1.869,0.797-3.258h5.273c0,2.896-0.754,5.083-2.26,6.56  c-1.507,1.477-3.5,2.217-5.983,2.217c-3.043,0-5.325-0.998-6.847-2.992S123.631,63.413,123.631,59.276z"/>
<path fill="#FFFFFF" d="M146.582,47.621h4.431l0.62,3.412h0.267c0.383-1.182,0.886-2.134,1.507-2.858  c0.62-0.724,1.462-1.086,2.525-1.086c0.562,0,1.049,0.052,1.463,0.155c0.414,0.104,0.665,0.17,0.753,0.2v5.141h-1.905  c-1.3,0-2.349,0.413-3.147,1.24c-0.797,0.827-1.195,2.202-1.195,4.122v12.985h-5.317V47.621z"/>
<path fill="#FFFFFF" d="M174.808,60.119v-1.684c0-2.187-0.28-3.82-0.841-4.897c-0.562-1.078-1.464-1.618-2.704-1.618  c-1.241,0-2.143,0.554-2.703,1.662c-0.562,1.107-0.842,2.756-0.842,4.941v1.596c0,2.186,0.28,3.818,0.842,4.897  c0.561,1.079,1.462,1.617,2.703,1.617c1.24,0,2.142-0.538,2.704-1.617C174.527,63.938,174.808,62.305,174.808,60.119   M167.584,68.052h-0.222l-0.531,2.881h-4.432V38.89h5.318v11.124h0.221c0.413-0.915,1.086-1.632,2.017-2.149  c0.932-0.517,1.986-0.776,3.169-0.776c2.186,0,3.937,1.013,5.252,3.036c1.314,2.023,1.973,5.059,1.973,9.107  c0,4.106-0.658,7.172-1.973,9.195c-1.315,2.024-3.154,3.037-5.519,3.037c-1.122,0-2.142-0.288-3.057-0.864  C168.884,70.023,168.145,69.174,167.584,68.052z"/>
<path fill="#C3C348" d="M178.284,96.135c-0.367,0-0.685-0.041-0.953-0.119c-0.27-0.081-0.494-0.193-0.673-0.335  c-0.18-0.145-0.316-0.312-0.408-0.51c-0.093-0.197-0.145-0.412-0.153-0.645h0.655c0.019,0.181,0.069,0.335,0.152,0.466  c0.084,0.131,0.192,0.237,0.328,0.322c0.135,0.085,0.29,0.147,0.464,0.188c0.177,0.042,0.362,0.062,0.56,0.062  c0.188,0,0.36-0.018,0.518-0.054c0.155-0.039,0.289-0.093,0.398-0.164c0.111-0.069,0.196-0.154,0.258-0.253  c0.062-0.099,0.093-0.209,0.093-0.335c0-0.134-0.027-0.245-0.083-0.334s-0.146-0.169-0.274-0.237  c-0.126-0.068-0.292-0.129-0.495-0.183s-0.454-0.111-0.75-0.169c-0.295-0.056-0.547-0.123-0.757-0.205  c-0.211-0.082-0.38-0.174-0.505-0.275c-0.255-0.204-0.383-0.476-0.383-0.82c0-0.192,0.045-0.37,0.134-0.533  c0.088-0.159,0.211-0.297,0.37-0.413c0.159-0.117,0.35-0.207,0.573-0.271c0.226-0.066,0.475-0.099,0.747-0.099  c0.287,0,0.549,0.03,0.785,0.095c0.237,0.064,0.439,0.156,0.611,0.277c0.17,0.12,0.306,0.27,0.403,0.446  c0.1,0.177,0.154,0.38,0.163,0.607h-0.661c-0.068-0.574-0.494-0.861-1.276-0.861c-0.379,0-0.672,0.066-0.879,0.197  c-0.206,0.133-0.31,0.308-0.31,0.526c0,0.1,0.019,0.187,0.056,0.258c0.038,0.07,0.101,0.135,0.191,0.191  c0.091,0.054,0.211,0.104,0.363,0.149s0.344,0.09,0.574,0.137c0.453,0.089,0.815,0.18,1.087,0.274  c0.133,0.044,0.258,0.102,0.376,0.171c0.117,0.069,0.223,0.153,0.31,0.251c0.091,0.099,0.162,0.211,0.216,0.339  c0.052,0.128,0.078,0.271,0.078,0.433c0,0.204-0.046,0.395-0.14,0.567c-0.092,0.173-0.222,0.323-0.391,0.449  c-0.167,0.128-0.367,0.229-0.6,0.301C178.822,96.099,178.564,96.135,178.284,96.135 M173.212,94.106l-0.899-2.201l-0.863,2.201  H173.212z M174.776,96.051h-0.769l-0.592-1.446h-2.15l-0.571,1.446h-0.719l1.976-4.75h0.733L174.776,96.051z M168.404,96.051h-0.682  v-2.234h-2.674v2.234h-0.677v-4.75h0.677v1.95h2.674v-1.95h0.682V96.051z M162.216,96.051h-0.7l-2.689-3.748v3.748h-0.643v-4.75  h0.691l2.689,3.749v-3.749h0.651V96.051z M155.951,96.051h-0.682v-4.75h0.682V96.051z M153.028,96.051h-0.7l-2.69-3.748v3.748  h-0.643v-4.75h0.691l2.69,3.749v-3.749h0.651V96.051z M145.86,94.106l-0.9-2.201l-0.864,2.201H145.86z M147.424,96.051h-0.769  l-0.591-1.446h-2.152l-0.569,1.446h-0.719l1.975-4.75h0.732L147.424,96.051z M137.696,95.487h0.936c0.748,0,1.258-0.161,1.527-0.478  c0.271-0.32,0.403-0.771,0.403-1.359c0-0.571-0.133-1.01-0.403-1.317c-0.27-0.314-0.779-0.47-1.527-0.47h-0.936V95.487z   M137.02,91.301h1.631c1.741,0,2.612,0.783,2.612,2.35c0,1.602-0.871,2.4-2.612,2.4h-1.631V91.301z M129.287,96.135  c-0.365,0-0.684-0.041-0.951-0.119c-0.27-0.081-0.495-0.193-0.676-0.335c-0.179-0.145-0.313-0.312-0.406-0.51  c-0.094-0.197-0.144-0.412-0.152-0.645h0.654c0.018,0.181,0.07,0.335,0.152,0.466c0.084,0.131,0.193,0.237,0.327,0.322  c0.136,0.085,0.29,0.147,0.466,0.188c0.176,0.042,0.361,0.062,0.56,0.062c0.188,0,0.36-0.018,0.517-0.054  c0.155-0.039,0.289-0.093,0.399-0.164c0.11-0.069,0.196-0.154,0.258-0.253c0.06-0.099,0.092-0.209,0.092-0.335  c0-0.134-0.028-0.245-0.083-0.334s-0.147-0.169-0.274-0.237s-0.292-0.129-0.494-0.183c-0.205-0.054-0.455-0.111-0.752-0.169  c-0.292-0.056-0.546-0.123-0.757-0.205s-0.379-0.174-0.506-0.275c-0.253-0.204-0.381-0.476-0.381-0.82  c0-0.192,0.045-0.37,0.134-0.533c0.088-0.159,0.212-0.297,0.37-0.413c0.157-0.117,0.351-0.207,0.574-0.271  c0.225-0.066,0.474-0.099,0.746-0.099c0.287,0,0.55,0.03,0.786,0.095s0.439,0.156,0.61,0.277c0.171,0.12,0.306,0.27,0.403,0.446  c0.099,0.177,0.152,0.38,0.162,0.607h-0.66c-0.069-0.574-0.493-0.861-1.275-0.861c-0.38,0-0.673,0.066-0.88,0.197  c-0.207,0.133-0.311,0.308-0.311,0.526c0,0.1,0.02,0.187,0.057,0.258c0.037,0.07,0.102,0.135,0.19,0.191  c0.09,0.054,0.213,0.104,0.364,0.149c0.152,0.045,0.345,0.09,0.575,0.137c0.451,0.089,0.815,0.18,1.086,0.274  c0.132,0.044,0.257,0.102,0.375,0.171c0.119,0.069,0.222,0.153,0.312,0.251c0.091,0.099,0.161,0.211,0.215,0.339  c0.052,0.128,0.078,0.271,0.078,0.433c0,0.204-0.046,0.395-0.14,0.567c-0.092,0.173-0.222,0.323-0.391,0.449  c-0.167,0.128-0.368,0.229-0.602,0.301C129.825,96.099,129.567,96.135,129.287,96.135z M124.217,94.106l-0.902-2.201l-0.861,2.201  H124.217z M125.78,96.051h-0.768l-0.594-1.446h-2.15l-0.569,1.446h-0.721l1.978-4.75h0.731L125.78,96.051z M119.827,91.863h-1.702  v4.188h-0.684v-4.188h-1.683v-0.562h4.068V91.863z M114.021,96.051h-0.7l-2.69-3.748v3.748h-0.643v-4.75h0.691l2.69,3.749v-3.749  h0.651V96.051z M106.854,94.106l-0.902-2.201l-0.862,2.201H106.854z M108.416,96.051h-0.767l-0.594-1.446h-2.151l-0.57,1.446h-0.719  l1.975-4.75h0.734L108.416,96.051z M102.38,96.051h-3.174v-4.75h0.678v4.187h2.496V96.051z M94.095,93.588h1.302  c0.219,0,0.405-0.021,0.56-0.059c0.153-0.04,0.279-0.095,0.375-0.17c0.096-0.075,0.165-0.167,0.209-0.277  c0.043-0.107,0.064-0.234,0.064-0.374c0-0.097-0.013-0.186-0.04-0.271c-0.028-0.086-0.064-0.166-0.113-0.234  c-0.048-0.071-0.105-0.13-0.172-0.179c-0.067-0.05-0.141-0.082-0.217-0.103c-0.163-0.038-0.39-0.058-0.685-0.058h-1.284V93.588z   M93.417,91.301h1.917c0.21,0,0.401,0.009,0.575,0.026c0.174,0.017,0.333,0.043,0.477,0.084c0.141,0.034,0.268,0.092,0.382,0.175  c0.114,0.083,0.211,0.181,0.292,0.294s0.142,0.24,0.187,0.376c0.043,0.141,0.065,0.282,0.065,0.43c0,0.482-0.163,0.846-0.489,1.095  c-0.327,0.248-0.804,0.372-1.433,0.372h-1.293v1.898h-0.678V91.301z M85.686,96.135c-0.367,0-0.684-0.041-0.952-0.119  c-0.27-0.081-0.495-0.193-0.674-0.335c-0.179-0.145-0.316-0.312-0.408-0.51c-0.093-0.197-0.144-0.412-0.153-0.645h0.656  c0.017,0.181,0.069,0.335,0.152,0.466c0.084,0.131,0.192,0.237,0.328,0.322c0.135,0.085,0.29,0.147,0.464,0.188  c0.176,0.042,0.362,0.062,0.56,0.062c0.188,0,0.36-0.018,0.517-0.054c0.156-0.039,0.29-0.093,0.4-0.164  c0.11-0.069,0.196-0.154,0.257-0.253c0.061-0.099,0.092-0.209,0.092-0.335c0-0.134-0.028-0.245-0.083-0.334  c-0.056-0.089-0.147-0.169-0.275-0.237s-0.292-0.129-0.495-0.183c-0.204-0.054-0.455-0.111-0.751-0.169  c-0.293-0.056-0.546-0.123-0.756-0.205c-0.212-0.082-0.381-0.174-0.506-0.275c-0.255-0.204-0.382-0.476-0.382-0.82  c0-0.192,0.045-0.37,0.134-0.533c0.088-0.159,0.211-0.297,0.37-0.413c0.159-0.117,0.351-0.207,0.575-0.271  c0.225-0.066,0.474-0.099,0.747-0.099c0.286,0,0.548,0.03,0.784,0.095c0.238,0.064,0.44,0.156,0.612,0.277  c0.17,0.12,0.305,0.27,0.403,0.446c0.099,0.177,0.153,0.38,0.163,0.607h-0.661c-0.069-0.574-0.494-0.861-1.276-0.861  c-0.38,0-0.672,0.066-0.879,0.197c-0.208,0.133-0.31,0.308-0.31,0.526c0,0.1,0.019,0.187,0.056,0.258  c0.038,0.07,0.101,0.135,0.191,0.191c0.091,0.054,0.212,0.104,0.363,0.149c0.153,0.045,0.345,0.09,0.575,0.137  c0.453,0.089,0.816,0.18,1.087,0.274c0.132,0.044,0.258,0.102,0.375,0.171s0.222,0.153,0.311,0.251  c0.09,0.099,0.161,0.211,0.215,0.339c0.051,0.128,0.078,0.271,0.078,0.433c0,0.204-0.046,0.395-0.139,0.567  c-0.092,0.173-0.222,0.323-0.391,0.449c-0.167,0.128-0.368,0.229-0.601,0.301C86.225,96.099,85.966,96.135,85.686,96.135z   M80.615,94.106l-0.902-2.201l-0.863,2.201H80.615z M82.178,96.051h-0.768l-0.593-1.446h-2.15l-0.571,1.446h-0.719l1.976-4.75h0.732  L82.178,96.051z M72.452,95.487h0.935c0.748,0,1.257-0.161,1.527-0.478c0.27-0.32,0.404-0.771,0.404-1.359  c0-0.571-0.134-1.01-0.404-1.317c-0.27-0.314-0.779-0.47-1.527-0.47h-0.935V95.487z M71.773,91.301h1.631  c1.742,0,2.613,0.783,2.613,2.35c0,1.602-0.872,2.4-2.613,2.4h-1.631V91.301z M64.759,94.106l-0.901-2.201l-0.863,2.201H64.759z   M66.323,96.051h-0.768l-0.593-1.446h-2.151l-0.569,1.446h-0.719l1.975-4.75h0.732L66.323,96.051z M59.874,96.051h-0.682v-4.75  h0.682V96.051z M56.951,96.051h-0.645v-4.043l-1.465,4.043h-0.61l-1.464-4.043v4.043h-0.642v-4.75h1.019l1.392,3.961l1.396-3.961  h1.019V96.051z M50.162,96.051h-3.826v-4.75h3.709v0.562h-3.032v1.453h2.834v0.563h-2.834v1.607h3.148V96.051z M40.826,95.487h0.935  c0.748,0,1.256-0.161,1.526-0.478c0.27-0.32,0.405-0.771,0.405-1.359c0-0.571-0.135-1.01-0.405-1.317  c-0.27-0.314-0.779-0.47-1.526-0.47h-0.935V95.487z M40.148,91.301h1.63c1.741,0,2.613,0.783,2.613,2.35  c0,1.602-0.872,2.4-2.613,2.4h-1.63V91.301z M37.013,94.106l-0.901-2.201l-0.863,2.201H37.013z M38.577,96.051h-0.768l-0.593-1.446  h-2.151l-0.57,1.446h-0.719l1.976-4.75h0.733L38.577,96.051z M30.322,96.135c-0.362,0-0.69-0.058-0.985-0.172  c-0.294-0.116-0.545-0.28-0.754-0.493c-0.208-0.214-0.368-0.471-0.48-0.774c-0.113-0.304-0.168-0.644-0.168-1.021  c0-0.375,0.057-0.716,0.17-1.02c0.114-0.304,0.275-0.562,0.483-0.772c0.208-0.211,0.46-0.377,0.754-0.491  c0.296-0.114,0.622-0.172,0.981-0.172c0.276,0,0.535,0.037,0.777,0.109c0.242,0.074,0.457,0.177,0.643,0.311  c0.185,0.132,0.337,0.293,0.456,0.479c0.119,0.188,0.189,0.394,0.214,0.621h-0.7c-0.015-0.148-0.06-0.284-0.133-0.405  c-0.074-0.121-0.17-0.223-0.292-0.311c-0.121-0.083-0.263-0.15-0.428-0.196c-0.162-0.045-0.34-0.068-0.532-0.068  c-0.257,0-0.49,0.041-0.697,0.127c-0.208,0.084-0.386,0.207-0.532,0.37c-0.147,0.162-0.261,0.362-0.34,0.601  c-0.079,0.237-0.119,0.51-0.119,0.817c0,0.31,0.038,0.58,0.117,0.819c0.078,0.239,0.188,0.439,0.334,0.603  c0.146,0.164,0.322,0.288,0.527,0.372c0.207,0.084,0.44,0.127,0.696,0.127c0.401,0,0.727-0.09,0.975-0.271  c0.248-0.181,0.389-0.439,0.423-0.782h0.7c-0.024,0.256-0.094,0.482-0.206,0.683c-0.114,0.195-0.263,0.361-0.445,0.497  c-0.182,0.134-0.396,0.236-0.641,0.308C30.875,96.1,30.61,96.135,30.322,96.135z M25.037,94.106l-0.901-2.201l-0.863,2.201H25.037z   M26.601,96.051h-0.768l-0.593-1.446h-2.15l-0.57,1.446H21.8l1.975-4.75h0.733L26.601,96.051z"/>
</svg>